<svg xmlns="http://www.w3.org/2000/svg" width="500" height="500" color-interpolation-filters="sRGB" style="background: transparent; outline: none;" tabindex="1">
  <g transform="matrix(.83857 0 0 .83857 4.1929 18.1342)">
    <g fill="none">
      <g fill="none" class="elements">
        <g fill="none">
          <g>
            <path fill="none" stroke="rgba(153,173,209,1)" stroke-width="1" d="M286.25 80c0 50-118.75 50-118.75 94" class="key"/>
            <path fill="none" stroke="transparent" stroke-width="3" d="M286.25 80c0 50-118.75 50-118.75 94" class="key"/>
            <g transform="matrix(0 -1 1 0 167.5 174)">
              <path fill="rgba(153,173,209,1)" stroke="rgba(153,173,209,1)" stroke-dasharray="0,0" stroke-linejoin="round" stroke-width="1" d="m-5 0 10-5-2 5 2 5Z"/>
            </g>
          </g>
        </g>
        <g fill="none">
          <g>
            <path fill="none" stroke="rgba(153,173,209,1)" stroke-width="1" d="M286.25 80c0 50 227.5 50 227.5 94" class="key"/>
            <path fill="none" stroke="transparent" stroke-width="3" d="M286.25 80c0 50 227.5 50 227.5 94" class="key"/>
            <g transform="matrix(0 -1 1 0 513.75 174)">
              <path fill="rgba(153,173,209,1)" stroke="rgba(153,173,209,1)" stroke-dasharray="0,0" stroke-linejoin="round" stroke-width="1" d="m-5 0 10-5-2 5 2 5Z"/>
            </g>
          </g>
        </g>
        <g fill="none">
          <g>
            <path fill="none" stroke="rgba(153,173,209,1)" stroke-width="1" d="M286.25 80c0 50-16.25 50-16.25 94" class="key"/>
            <path fill="none" stroke="transparent" stroke-width="3" d="M286.25 80c0 50-16.25 50-16.25 94" class="key"/>
            <g transform="matrix(0 -1 1 0 270 174)">
              <path fill="rgba(153,173,209,1)" stroke="rgba(153,173,209,1)" stroke-dasharray="0,0" stroke-linejoin="round" stroke-width="1" d="m-5 0 10-5-2 5 2 5Z"/>
            </g>
          </g>
        </g>
        <g fill="none" transform="matrix(1 0 0 1 286.25 65)">
          <g>
            <path width="60" height="30" x="-30" y="-15" fill="rgba(23,131,255,1)" stroke="rgba(0,0,0,1)" stroke-width="0" d="m-22-15 44 0a8 8 0 0 1 8 8l0 14a8 8 0 0 1-8 8l-44 0a8 8 0 0 1-8-8l0-14a8 8 0 0 1 8-8z" class="key"/>
          </g>
          <g fill="none" class="label" transform="matrix(1 0 0 1 0 2)">
            <g>
              <text fill="rgba(0,0,0,1)" fill-opacity=".85" class="text" dominant-baseline="central" dx=".5" dy="0" font-family="system-ui, sans-serif" font-size="12" font-weight="400" paint-order="stroke" style="transform:translate(0px, 0px);" text-anchor="middle">0</text>
            </g>
          </g>
        </g>
        <g fill="none" transform="matrix(1 0 0 1 167.5 195)">
          <g>
            <path width="60" height="30" x="-30" y="-15" fill="rgba(23,131,255,1)" stroke="rgba(0,0,0,1)" stroke-width="0" d="m-22-15 44 0a8 8 0 0 1 8 8l0 14a8 8 0 0 1-8 8l-44 0a8 8 0 0 1-8-8l0-14a8 8 0 0 1 8-8z" class="key"/>
          </g>
          <g fill="none" class="label" transform="matrix(1 0 0 1 0 2)">
            <g>
              <text fill="rgba(0,0,0,1)" fill-opacity=".85" class="text" dominant-baseline="central" dx=".5" dy="0" font-family="system-ui, sans-serif" font-size="12" font-weight="400" paint-order="stroke" style="transform:translate(0px, 0px);" text-anchor="middle">1</text>
            </g>
          </g>
        </g>
        <g fill="none" transform="matrix(1 0 0 1 513.75 195)">
          <g>
            <path width="60" height="30" x="-30" y="-15" fill="rgba(23,131,255,1)" stroke="rgba(0,0,0,1)" stroke-width="0" d="m-22-15 44 0a8 8 0 0 1 8 8l0 14a8 8 0 0 1-8 8l-44 0a8 8 0 0 1-8-8l0-14a8 8 0 0 1 8-8z" class="key"/>
          </g>
          <g fill="none" class="label" transform="matrix(1 0 0 1 0 2)">
            <g>
              <text fill="rgba(0,0,0,1)" fill-opacity=".85" class="text" dominant-baseline="central" dx=".5" dy="0" font-family="system-ui, sans-serif" font-size="12" font-weight="400" paint-order="stroke" style="transform:translate(0px, 0px);" text-anchor="middle">2</text>
            </g>
          </g>
        </g>
        <g fill="none" transform="matrix(1 0 0 1 270 195)">
          <g>
            <path width="60" height="30" x="-30" y="-15" fill="rgba(23,131,255,1)" stroke="rgba(0,0,0,1)" stroke-width="0" d="m-22-15 44 0a8 8 0 0 1 8 8l0 14a8 8 0 0 1-8 8l-44 0a8 8 0 0 1-8-8l0-14a8 8 0 0 1 8-8z" class="key"/>
          </g>
          <g fill="none" class="label" transform="matrix(1 0 0 1 0 2)">
            <g>
              <text fill="rgba(0,0,0,1)" fill-opacity=".85" class="text" dominant-baseline="central" dx=".5" dy="0" font-family="system-ui, sans-serif" font-size="12" font-weight="400" paint-order="stroke" style="transform:translate(0px, 0px);" text-anchor="middle">3</text>
            </g>
          </g>
        </g>
        <g fill="none" transform="matrix(1 0 0 1 513.75 390)">
          <g>
            <path width="155" height="180" x="-77.5" y="-90" fill="rgba(153,173,209,1)" fill-opacity=".04" stroke="rgba(153,173,209,1)" stroke-dasharray="0,0" stroke-width="1" d="m-69.5-90 139 0a8 8 0 0 1 8 8l0 164a8 8 0 0 1-8 8l-139 0a8 8 0 0 1-8-8l0-164a8 8 0 0 1 8-8z" class="key"/>
          </g>
          <g fill="none" class="label" transform="matrix(1 0 0 1 0 90)">
            <g>
              <text fill="rgba(0,0,0,1)" class="text" dominant-baseline="central" dx=".5" dy="11.5" font-family="system-ui, sans-serif" font-size="12" font-weight="400" paint-order="stroke" style="transform:translate(0px, 0px);" text-anchor="middle">B</text>
            </g>
          </g>
        </g>
        <g fill="none">
          <g>
            <path fill="none" stroke="rgba(153,173,209,1)" stroke-width="1" d="M167.5 210c0 50-13.25 50-13.25 94" class="key"/>
            <path fill="none" stroke="transparent" stroke-width="3" d="M167.5 210c0 50-132.5 50-132.5 94" class="key"/>
            <g transform="matrix(0 -1 1 0 154.25 304)">
              <path fill="rgba(153,173,209,1)" stroke="rgba(153,173,209,1)" stroke-dasharray="0,0" stroke-linejoin="round" stroke-width="1" d="m-5 0 10-5-2 5 2 5Z"/>
            </g>
          </g>
        </g>
        <g fill="none">
          <g>
            <path fill="none" stroke="rgba(153,173,209,1)" stroke-width="1" d="M270 210c0 50-115.75 50-115.75 94" class="key"/>
            <path fill="none" stroke="transparent" stroke-width="3" d="M270 210c0 50-235 50-235 94" class="key"/>
            <g transform="matrix(0 -1 1 0 154.25 304)">
              <path fill="rgba(153,173,209,1)" stroke="rgba(153,173,209,1)" stroke-dasharray="0,0" stroke-linejoin="round" stroke-width="1" d="m-5 0 10-5-2 5 2 5Z"/>
            </g>
          </g>
        </g>
        <g fill="none">
          <g>
            <path fill="none" stroke="rgba(153,173,209,1)" stroke-width="1" d="M513.75 210c0 50 0 50 0 94" class="key"/>
            <path fill="none" stroke="transparent" stroke-width="3" d="M513.75 210c0 50 0 50 0 94" class="key"/>
            <g transform="matrix(0 -1 1 0 513.75 304)">
              <path fill="rgba(153,173,209,1)" stroke="rgba(153,173,209,1)" stroke-dasharray="0,0" stroke-linejoin="round" stroke-width="1" d="m-5 0 10-5-2 5 2 5Z"/>
            </g>
          </g>
        </g>
        <g fill="none">
          <g>
            <path fill="none" stroke="rgba(153,173,209,1)" stroke-width="1" d="M167.5 210c0 50 61.75 50 61.75 94" class="key"/>
            <path fill="none" stroke="transparent" stroke-width="3" d="M167.5 210c0 50-57.5 50-57.5 94" class="key"/>
            <g transform="matrix(0 -1 1 0 229.25 304)">
              <path fill="rgba(153,173,209,1)" stroke="rgba(153,173,209,1)" stroke-dasharray="0,0" stroke-linejoin="round" stroke-width="1" d="m-5 0 10-5-2 5 2 5Z"/>
            </g>
          </g>
        </g>
        <g fill="none">
          <g>
            <path fill="none" stroke="rgba(153,173,209,1)" stroke-width="1" d="M167.5 210c0 50 120.575 50 120.575 94" class="key"/>
            <path fill="none" stroke="transparent" stroke-width="3" d="M167.5 210c0 50 132.5 50 132.5 94" class="key"/>
            <g transform="matrix(0 -1 1 0 288.075 304)">
              <path fill="rgba(153,173,209,1)" stroke="rgba(153,173,209,1)" stroke-dasharray="0,0" stroke-linejoin="round" stroke-width="1" d="m-5 0 10-5-2 5 2 5Z"/>
            </g>
          </g>
        </g>
        <g fill="none">
          <g>
            <path fill="none" stroke="rgba(153,173,209,1)" stroke-width="1" d="M270 210c0 50 93.075 50 93.075 94" class="key"/>
            <path fill="none" stroke="transparent" stroke-width="3" d="M270 210c0 50 105 50 105 94" class="key"/>
            <g transform="matrix(0 -1 1 0 363.075 304)">
              <path fill="rgba(153,173,209,1)" stroke="rgba(153,173,209,1)" stroke-dasharray="0,0" stroke-linejoin="round" stroke-width="1" d="m-5 0 10-5-2 5 2 5Z"/>
            </g>
          </g>
        </g>
        <g fill="none">
          <g>
            <path fill="none" stroke="rgba(153,173,209,1)" stroke-width="1" d="M270 210c0 50 34.25 50 34.25 94" class="key"/>
            <path fill="none" stroke="transparent" stroke-width="3" d="M270 210c0 50-85 50-85 94" class="key"/>
            <g transform="matrix(0 -1 1 0 304.25 304)">
              <path fill="rgba(153,173,209,1)" stroke="rgba(153,173,209,1)" stroke-dasharray="0,0" stroke-linejoin="round" stroke-width="1" d="m-5 0 10-5-2 5 2 5Z"/>
            </g>
          </g>
        </g>
        <g fill="none">
          <g>
            <path fill="none" stroke="rgba(153,173,209,1)" stroke-width="1" d="M513.75 340c0 50-37.5 50-37.5 94" class="key"/>
            <path fill="none" stroke="transparent" stroke-width="3" d="M513.75 340c0 50-37.5 50-37.5 94" class="key"/>
            <g transform="matrix(0 -1 1 0 476.25 434)">
              <path fill="rgba(153,173,209,1)" stroke="rgba(153,173,209,1)" stroke-dasharray="0,0" stroke-linejoin="round" stroke-width="1" d="m-5 0 10-5-2 5 2 5Z"/>
            </g>
          </g>
        </g>
        <g fill="none">
          <g>
            <path fill="none" stroke="rgba(153,173,209,1)" stroke-width="1" d="M513.75 340c0 50 37.5 50 37.5 94" class="key"/>
            <path fill="none" stroke="transparent" stroke-width="3" d="M513.75 340c0 50 37.5 50 37.5 94" class="key"/>
            <g transform="matrix(0 -1 1 0 551.25 434)">
              <path fill="rgba(153,173,209,1)" stroke="rgba(153,173,209,1)" stroke-dasharray="0,0" stroke-linejoin="round" stroke-width="1" d="m-5 0 10-5-2 5 2 5Z"/>
            </g>
          </g>
        </g>
        <g fill="none" transform="matrix(1 0 0 1 513.75 325)">
          <g>
            <path width="60" height="30" x="-30" y="-15" fill="rgba(240,143,86,1)" stroke="rgba(0,0,0,1)" stroke-width="0" d="m-22-15 44 0a8 8 0 0 1 8 8l0 14a8 8 0 0 1-8 8l-44 0a8 8 0 0 1-8-8l0-14a8 8 0 0 1 8-8z" class="key"/>
          </g>
          <g fill="none" class="label" transform="matrix(1 0 0 1 0 2)">
            <g>
              <text fill="rgba(0,0,0,1)" fill-opacity=".85" class="text" dominant-baseline="central" dx=".5" dy="0" font-family="system-ui, sans-serif" font-size="12" font-weight="400" paint-order="stroke" style="transform:translate(0px, 0px);" text-anchor="middle">5</text>
            </g>
          </g>
        </g>
        <g fill="none" transform="matrix(1 0 0 1 476.25 455)">
          <g>
            <path width="60" height="30" x="-30" y="-15" fill="rgba(240,143,86,1)" stroke="rgba(0,0,0,1)" stroke-width="0" d="m-22-15 44 0a8 8 0 0 1 8 8l0 14a8 8 0 0 1-8 8l-44 0a8 8 0 0 1-8-8l0-14a8 8 0 0 1 8-8z" class="key"/>
          </g>
          <g fill="none" class="label" transform="matrix(1 0 0 1 0 2)">
            <g>
              <text fill="rgba(0,0,0,1)" fill-opacity=".85" class="text" dominant-baseline="central" dx=".5" dy="0" font-family="system-ui, sans-serif" font-size="12" font-weight="400" paint-order="stroke" style="transform:translate(0px, 0px);" text-anchor="middle">10</text>
            </g>
          </g>
        </g>
        <g fill="none" transform="matrix(1 0 0 1 551.25 455)">
          <g>
            <path width="60" height="30" x="-30" y="-15" fill="rgba(240,143,86,1)" stroke="rgba(0,0,0,1)" stroke-width="0" d="m-22-15 44 0a8 8 0 0 1 8 8l0 14a8 8 0 0 1-8 8l-44 0a8 8 0 0 1-8-8l0-14a8 8 0 0 1 8-8z" class="key"/>
          </g>
          <g fill="none" class="label" transform="matrix(1 0 0 1 0 2)">
            <g>
              <text fill="rgba(0,0,0,1)" fill-opacity=".85" class="text" dominant-baseline="central" dx=".5" dy="0" font-family="system-ui, sans-serif" font-size="12" font-weight="400" paint-order="stroke" style="transform:translate(0px, 0px);" text-anchor="middle">11</text>
            </g>
          </g>
        </g>
        <g fill="none" transform="matrix(1 0 0 1 229.25 325)">
          <g>
            <path width="230" height="50" x="-115" y="-25" fill="rgba(153,173,209,1)" fill-opacity=".04" stroke="rgba(153,173,209,1)" stroke-dasharray="0,0" stroke-width="1" d="m-107-25 214 0a8 8 0 0 1 8 8l0 34a8 8 0 0 1-8 8l-214 0a8 8 0 0 1-8-8l0-34a8 8 0 0 1 8-8z" class="key"/>
          </g>
          <g fill="none" class="label" transform="matrix(1 0 0 1 0 25)">
            <g>
              <text fill="rgba(0,0,0,1)" class="text" dominant-baseline="central" dx=".5" dy="11.5" font-family="system-ui, sans-serif" font-size="12" font-weight="400" paint-order="stroke" style="transform:translate(0px, 0px);" text-anchor="middle">A</text>
            </g>
          </g>
        </g>
        <g fill="none" transform="matrix(1 0 0 1 154.25 325)">
          <g>
            <path width="60" height="30" x="-30" y="-15" fill="rgba(0,201,201,1)" stroke="rgba(0,0,0,1)" stroke-width="0" d="m-22-15 44 0a8 8 0 0 1 8 8l0 14a8 8 0 0 1-8 8l-44 0a8 8 0 0 1-8-8l0-14a8 8 0 0 1 8-8z" class="key"/>
          </g>
          <g fill="none" class="label" transform="matrix(1 0 0 1 0 2)">
            <g>
              <text fill="rgba(0,0,0,1)" fill-opacity=".85" class="text" dominant-baseline="central" dx=".5" dy="0" font-family="system-ui, sans-serif" font-size="12" font-weight="400" paint-order="stroke" style="transform:translate(0px, 0px);" text-anchor="middle">4</text>
            </g>
          </g>
        </g>
        <g fill="none" transform="matrix(1 0 0 1 229.25 325)">
          <g>
            <path width="60" height="30" x="-30" y="-15" fill="rgba(0,201,201,1)" stroke="rgba(0,0,0,1)" stroke-width="0" d="m-22-15 44 0a8 8 0 0 1 8 8l0 14a8 8 0 0 1-8 8l-44 0a8 8 0 0 1-8-8l0-14a8 8 0 0 1 8-8z" class="key"/>
          </g>
          <g fill="none" class="label" transform="matrix(1 0 0 1 0 2)">
            <g>
              <text fill="rgba(0,0,0,1)" fill-opacity=".85" class="text" dominant-baseline="central" dx=".5" dy="0" font-family="system-ui, sans-serif" font-size="12" font-weight="400" paint-order="stroke" style="transform:translate(0px, 0px);" text-anchor="middle">6</text>
            </g>
          </g>
        </g>
        <g fill="none" transform="matrix(1 0 0 1 304.25 325)">
          <g>
            <path width="60" height="30" x="-30" y="-15" fill="rgba(0,201,201,1)" stroke="rgba(0,0,0,1)" stroke-width="0" d="m-22-15 44 0a8 8 0 0 1 8 8l0 14a8 8 0 0 1-8 8l-44 0a8 8 0 0 1-8-8l0-14a8 8 0 0 1 8-8z" class="key"/>
          </g>
          <g fill="none" class="label" transform="matrix(1 0 0 1 0 2)">
            <g>
              <text fill="rgba(0,0,0,1)" fill-opacity=".85" class="text" dominant-baseline="central" dx=".5" dy="0" font-family="system-ui, sans-serif" font-size="12" font-weight="400" paint-order="stroke" style="transform:translate(0px, 0px);" text-anchor="middle">9</text>
            </g>
          </g>
        </g>
        <g fill="none" transform="matrix(1 0 0 1 325.575 325)">
          <g>
            <path width="155" height="50" x="-77.5" y="-25" fill="rgba(153,173,209,1)" fill-opacity=".04" stroke="rgba(153,173,209,1)" stroke-dasharray="0,0" stroke-width="1" d="m-69.5-25 139 0a8 8 0 0 1 8 8l0 34a8 8 0 0 1-8 8l-139 0a8 8 0 0 1-8-8l0-34a8 8 0 0 1 8-8z" class="key"/>
          </g>
          <g fill="none" class="label" transform="matrix(1 0 0 1 0 25)">
            <g>
              <text fill="rgba(0,0,0,1)" class="text" dominant-baseline="central" dx=".5" dy="11.5" font-family="system-ui, sans-serif" font-size="12" font-weight="400" paint-order="stroke" style="transform:translate(0px, 0px);" text-anchor="middle">C</text>
            </g>
          </g>
        </g>
        <g fill="none" transform="matrix(1 0 0 1 288.075 325)">
          <g>
            <path width="60" height="30" x="-30" y="-15" fill="rgba(213,128,255,1)" stroke="rgba(0,0,0,1)" stroke-width="0" d="m-22-15 44 0a8 8 0 0 1 8 8l0 14a8 8 0 0 1-8 8l-44 0a8 8 0 0 1-8-8l0-14a8 8 0 0 1 8-8z" class="key"/>
          </g>
          <g fill="none" class="label" transform="matrix(1 0 0 1 0 2)">
            <g>
              <text fill="rgba(0,0,0,1)" fill-opacity=".85" class="text" dominant-baseline="central" dx=".5" dy="0" font-family="system-ui, sans-serif" font-size="12" font-weight="400" paint-order="stroke" style="transform:translate(0px, 0px);" text-anchor="middle">7</text>
            </g>
          </g>
        </g>
        <g fill="none" transform="matrix(1 0 0 1 363.075 325)">
          <g>
            <path width="60" height="30" x="-30" y="-15" fill="rgba(213,128,255,1)" stroke="rgba(0,0,0,1)" stroke-width="0" d="m-22-15 44 0a8 8 0 0 1 8 8l0 14a8 8 0 0 1-8 8l-44 0a8 8 0 0 1-8-8l0-14a8 8 0 0 1 8-8z" class="key"/>
          </g>
          <g fill="none" class="label" transform="matrix(1 0 0 1 0 2)">
            <g>
              <text fill="rgba(0,0,0,1)" fill-opacity=".85" class="text" dominant-baseline="central" dx=".5" dy="0" font-family="system-ui, sans-serif" font-size="12" font-weight="400" paint-order="stroke" style="transform:translate(0px, 0px);" text-anchor="middle">8</text>
            </g>
          </g>
        </g>
      </g>
    </g>
  </g>
</svg>
