<svg xmlns="http://www.w3.org/2000/svg" width="500" height="500" color-interpolation-filters="sRGB" style="background: transparent; outline: none;" tabindex="1">
  <g transform="matrix(1 0 0 1 200 200)">
    <g fill="none">
      <g fill="none" class="elements">
        <g fill="none">
          <g>
            <path fill="none" stroke="rgba(153,173,209,1)" stroke-width="1" d="M-18-54c50 0 50-23.4301 100-23.4301" class="key"/>
            <path fill="none" stroke="transparent" stroke-width="3" d="M0 0c0 0 0 0 0 0" class="key"/>
          </g>
        </g>
        <g fill="none">
          <g>
            <path fill="none" stroke="rgba(153,173,209,1)" stroke-width="1" d="M-18-54c61.4338 0 61.4338 23.4301 122.8676 23.4301" class="key"/>
            <path fill="none" stroke="transparent" stroke-width="3" d="M0 0c0 0 0 0 0 0" class="key"/>
          </g>
        </g>
        <g fill="none">
          <g>
            <path fill="none" stroke="rgba(153,173,209,1)" stroke-width="1" d="M82-77.4301c11.4338 0 11.4338-4.5736 22.8676-4.5736" class="key"/>
            <path fill="none" stroke="transparent" stroke-width="3" d="M0 0c0 0 0 0 0 0" class="key"/>
          </g>
        </g>
        <g fill="none">
          <g>
            <path fill="none" stroke="rgba(153,173,209,1)" stroke-width="1" d="M82-77.4301c11.4338 0 11.4338 4.5735 22.8676 4.5735" class="key"/>
            <path fill="none" stroke="transparent" stroke-width="3" d="M0 0c0 0 0 0 0 0" class="key"/>
          </g>
        </g>
        <g fill="none" transform="matrix(1 0 0 1 -18 -54)">
          <g>
            <circle r="16" fill="rgba(23,131,255,1)" stroke="rgba(0,0,0,1)" stroke-width="0" class="key"/>
          </g>
          <g fill="none" class="label" transform="matrix(1 0 0 1 16 2)">
            <g>
              <text fill="rgba(0,0,0,1)" fill-opacity=".85" class="text" dominant-baseline="central" dx=".5" dy="0" font-family="system-ui, sans-serif" font-size="12" font-weight="400" paint-order="stroke" style="transform:translate(0px, 0px);" text-anchor="left">A</text>
            </g>
          </g>
        </g>
        <g fill="none" transform="matrix(1 0 0 1 104.8676 -82.0037)">
          <g>
            <circle r="16" fill="rgba(23,131,255,1)" stroke="rgba(0,0,0,1)" stroke-width="0" class="key"/>
          </g>
          <g fill="none" class="label" transform="matrix(1 0 0 1 16 2)">
            <g>
              <text fill="rgba(0,0,0,1)" fill-opacity=".85" class="text" dominant-baseline="central" dx=".5" dy="0" font-family="system-ui, sans-serif" font-size="12" font-weight="400" paint-order="stroke" style="transform:translate(0px, 0px);" text-anchor="left">D</text>
            </g>
          </g>
        </g>
        <g fill="none" transform="matrix(1 0 0 1 104.8676 -72.8566)">
          <g>
            <circle r="16" fill="rgba(23,131,255,1)" stroke="rgba(0,0,0,1)" stroke-width="0" class="key"/>
          </g>
          <g fill="none" class="label" transform="matrix(1 0 0 1 16 2)">
            <g>
              <text fill="rgba(0,0,0,1)" fill-opacity=".85" class="text" dominant-baseline="central" dx=".5" dy="0" font-family="system-ui, sans-serif" font-size="12" font-weight="400" paint-order="stroke" style="transform:translate(0px, 0px);" text-anchor="left">E</text>
            </g>
          </g>
        </g>
        <g fill="none" transform="matrix(1 0 0 1 104.8676 -30.5699)">
          <g>
            <circle r="16" fill="rgba(23,131,255,1)" stroke="rgba(0,0,0,1)" stroke-width="0" class="key"/>
          </g>
          <g fill="none" class="label" transform="matrix(1 0 0 1 16 2)">
            <g>
              <text fill="rgba(0,0,0,1)" fill-opacity=".85" class="text" dominant-baseline="central" dx=".5" dy="0" font-family="system-ui, sans-serif" font-size="12" font-weight="400" paint-order="stroke" style="transform:translate(0px, 0px);" text-anchor="left">C</text>
            </g>
          </g>
        </g>
        <g fill="none" transform="matrix(1 0 0 1 82 -77.4301)">
          <g>
            <circle r="16" fill="rgba(23,131,255,1)" stroke="rgba(0,0,0,1)" stroke-width="0" class="key"/>
          </g>
          <g fill="none" class="label" transform="matrix(1 0 0 1 16 2)">
            <g>
              <text fill="rgba(0,0,0,1)" fill-opacity=".85" class="text" dominant-baseline="central" dx=".5" dy="0" font-family="system-ui, sans-serif" font-size="12" font-weight="400" paint-order="stroke" style="transform:translate(0px, 0px);" text-anchor="left">B</text>
            </g>
          </g>
        </g>
      </g>
    </g>
  </g>
</svg>
