<svg xmlns="http://www.w3.org/2000/svg" width="500" height="500" color-interpolation-filters="sRGB" style="background: transparent; outline: none;" tabindex="1">
  <g transform="matrix(1 0 0 1 200 200)">
    <g fill="none">
      <g fill="none" class="elements">
        <g fill="none">
          <g>
            <path fill="none" stroke="rgba(153,173,209,1)" stroke-width="1" d="M-18-54c11.4338 0 11.4338-10.2904 22.8676-10.2904" class="key"/>
            <path fill="none" stroke="transparent" stroke-width="3" d="M0 0c0 0 0 0 0 0" class="key"/>
          </g>
        </g>
        <g fill="none">
          <g>
            <path fill="none" stroke="rgba(153,173,209,1)" stroke-width="1" d="M-18-54c11.4338 0 11.4338 10.2904 22.8676 10.2904" class="key"/>
            <path fill="none" stroke="transparent" stroke-width="3" d="M0 0c0 0 0 0 0 0" class="key"/>
          </g>
        </g>
        <g fill="none">
          <g>
            <path fill="none" stroke="rgba(153,173,209,1)" stroke-width="1" d="M4.8676-43.7096c11.4339 0 11.4339-4.5735 22.8677-4.5735" class="key"/>
            <path fill="none" stroke="transparent" stroke-width="3" d="M82-34c50 0 50-5 100-5" class="key"/>
          </g>
        </g>
        <g fill="none">
          <g>
            <path fill="none" stroke="rgba(153,173,209,1)" stroke-width="1" d="M4.8676-43.7096c11.4339 0 11.4339 4.5736 22.8677 4.5736" class="key"/>
            <path fill="none" stroke="transparent" stroke-width="3" d="M82-34c50 0 50 35 100 35" class="key"/>
          </g>
        </g>
        <g fill="none">
          <g>
            <path fill="none" stroke="rgba(153,173,209,1)" stroke-width="1" d="M4.8676-64.2904c11.4339 0 11.4339-4.5736 22.8677-4.5736" class="key"/>
            <path fill="none" stroke="transparent" stroke-width="3" d="M182-89c0 0 0-30 0-30" class="key"/>
          </g>
        </g>
        <g fill="none">
          <g>
            <path fill="none" stroke="rgba(153,173,209,1)" stroke-width="1" d="M4.8676-64.2904c11.4339 0 11.4339 4.5735 22.8677 4.5735" class="key"/>
            <path fill="none" stroke="transparent" stroke-width="3" d="M182-89c0 0 0 10 0 10" class="key"/>
          </g>
        </g>
        <g fill="none" transform="matrix(1 0 0 1 4.8676 -43.7096)">
          <g>
            <circle r="16" fill="rgba(23,131,255,1)" stroke="rgba(0,0,0,1)" stroke-width="0" class="key"/>
          </g>
          <g fill="none" class="label" transform="matrix(1 0 0 1 16 2)">
            <g>
              <text fill="rgba(0,0,0,1)" fill-opacity=".85" class="text" dominant-baseline="central" dx=".5" dy="0" font-family="system-ui, sans-serif" font-size="12" font-weight="400" paint-order="stroke" style="transform:translate(0px, 0px);" text-anchor="left">C</text>
            </g>
          </g>
        </g>
        <g fill="none" transform="matrix(1 0 0 1 27.7353 -48.283)">
          <g>
            <circle r="16" fill="rgba(23,131,255,1)" stroke="rgba(0,0,0,1)" stroke-width="0" class="key"/>
          </g>
          <g fill="none" class="label" transform="matrix(1 0 0 1 16 2)">
            <g>
              <text fill="rgba(0,0,0,1)" fill-opacity=".85" class="text" dominant-baseline="central" dx=".5" dy="0" font-family="system-ui, sans-serif" font-size="12" font-weight="400" paint-order="stroke" style="transform:translate(0px, 0px);" text-anchor="left">F</text>
            </g>
          </g>
        </g>
        <g fill="none" transform="matrix(1 0 0 1 27.7353 -39.136)">
          <g>
            <circle r="16" fill="rgba(23,131,255,1)" stroke="rgba(0,0,0,1)" stroke-width="0" class="key"/>
          </g>
          <g fill="none" class="label" transform="matrix(1 0 0 1 16 2)">
            <g>
              <text fill="rgba(0,0,0,1)" fill-opacity=".85" class="text" dominant-baseline="central" dx=".5" dy="0" font-family="system-ui, sans-serif" font-size="12" font-weight="400" paint-order="stroke" style="transform:translate(0px, 0px);" text-anchor="left">G</text>
            </g>
          </g>
        </g>
        <g fill="none" transform="matrix(1 0 0 1 27.7353 -68.864)">
          <g>
            <circle r="16" fill="rgba(23,131,255,1)" stroke="rgba(0,0,0,1)" stroke-width="0" class="key"/>
          </g>
          <g fill="none" class="label" transform="matrix(1 0 0 1 16 2)">
            <g>
              <text fill="rgba(0,0,0,1)" fill-opacity=".85" class="text" dominant-baseline="central" dx=".5" dy="0" font-family="system-ui, sans-serif" font-size="12" font-weight="400" paint-order="stroke" style="transform:translate(0px, 0px);" text-anchor="left">D</text>
            </g>
          </g>
        </g>
        <g fill="none" transform="matrix(1 0 0 1 27.7353 -59.717)">
          <g>
            <circle r="16" fill="rgba(23,131,255,1)" stroke="rgba(0,0,0,1)" stroke-width="0" class="key"/>
          </g>
          <g fill="none" class="label" transform="matrix(1 0 0 1 16 2)">
            <g>
              <text fill="rgba(0,0,0,1)" fill-opacity=".85" class="text" dominant-baseline="central" dx=".5" dy="0" font-family="system-ui, sans-serif" font-size="12" font-weight="400" paint-order="stroke" style="transform:translate(0px, 0px);" text-anchor="left">E</text>
            </g>
          </g>
        </g>
        <g fill="none" transform="matrix(1 0 0 1 4.8676 -64.2904)">
          <g>
            <circle r="16" fill="rgba(23,131,255,1)" stroke="rgba(0,0,0,1)" stroke-width="0" class="key"/>
          </g>
          <g fill="none" class="label" transform="matrix(1 0 0 1 16 2)">
            <g>
              <text fill="rgba(0,0,0,1)" fill-opacity=".85" class="text" dominant-baseline="central" dx=".5" dy="0" font-family="system-ui, sans-serif" font-size="12" font-weight="400" paint-order="stroke" style="transform:translate(0px, 0px);" text-anchor="left">B</text>
            </g>
          </g>
        </g>
        <g fill="none" transform="matrix(1 0 0 1 -18 -54)">
          <g>
            <circle r="16" fill="rgba(23,131,255,1)" stroke="rgba(0,0,0,1)" stroke-width="0" class="key"/>
          </g>
          <g fill="none" class="label" transform="matrix(1 0 0 1 16 2)">
            <g>
              <text fill="rgba(0,0,0,1)" fill-opacity=".85" class="text" dominant-baseline="central" dx=".5" dy="0" font-family="system-ui, sans-serif" font-size="12" font-weight="400" paint-order="stroke" style="transform:translate(0px, 0px);" text-anchor="left">A</text>
            </g>
          </g>
        </g>
      </g>
    </g>
  </g>
</svg>
