<svg xmlns="http://www.w3.org/2000/svg" width="500" height="500" color-interpolation-filters="sRGB" style="background: transparent; outline: none;" tabindex="1">
  <g transform="matrix(.44667 0 0 .44667 134.3387 138.6093)">
    <g fill="none">
      <g fill="none" class="elements">
        <g fill="none">
          <g>
            <path fill="none" stroke="rgba(153,173,209,1)" stroke-width="1" d="m-172.6051 124.6282-58.0485 130.681" class="key"/>
            <path fill="none" stroke="transparent" stroke-width="3" d="m16 0 0 0" class="key"/>
          </g>
        </g>
        <g fill="none">
          <g>
            <path fill="none" stroke="rgba(153,173,209,1)" stroke-width="1" d="m-104.8376 271.8864 141.5457-107.1431" class="key"/>
            <path fill="none" stroke="transparent" stroke-width="3" d="m16 0 0 0" class="key"/>
          </g>
        </g>
        <g fill="none">
          <g>
            <path fill="none" stroke="rgba(153,173,209,1)" stroke-width="1" d="m-90.6138 422.0486-135.4348-140.594" class="key"/>
            <path fill="none" stroke="transparent" stroke-width="3" d="m16 0 0 0" class="key"/>
          </g>
        </g>
        <g fill="none">
          <g>
            <path fill="none" stroke="rgba(153,173,209,1)" stroke-width="1" d="m-83.4012 418.0513-30.306-120.9878" class="key"/>
            <path fill="none" stroke="transparent" stroke-width="3" d="m16 0 0 0" class="key"/>
          </g>
        </g>
        <g fill="none">
          <g>
            <path fill="none" stroke="rgba(153,173,209,1)" stroke-width="1" d="m-64.0247 437.584 190.0414 49.2276" class="key"/>
            <path fill="none" stroke="transparent" stroke-width="3" d="m16 0 0 0" class="key"/>
          </g>
        </g>
        <g fill="none">
          <g>
            <path fill="none" stroke="rgba(153,173,209,1)" stroke-width="1" d="m357.2672 753.8133-168.61 35.9298" class="key"/>
            <path fill="none" stroke="transparent" stroke-width="3" d="m16 0 0 0" class="key"/>
          </g>
        </g>
        <g fill="none">
          <g>
            <path fill="none" stroke="rgba(153,173,209,1)" stroke-width="1" d="m188.6571 789.743 168.61-35.9297" class="key"/>
            <path fill="none" stroke="transparent" stroke-width="3" d="m16 0 0 0" class="key"/>
          </g>
        </g>
        <g fill="none">
          <g>
            <path fill="none" stroke="rgba(153,173,209,1)" stroke-width="1" d="m388.9866-245.5156-161.1875-44.5399" class="key"/>
            <path fill="none" stroke="transparent" stroke-width="3" d="m16 0 0 0" class="key"/>
          </g>
        </g>
        <g fill="none">
          <g>
            <path fill="none" stroke="rgba(153,173,209,1)" stroke-width="1" d="m-261.506 352.8982 89.547-227.9998" class="key"/>
            <path fill="none" stroke="transparent" stroke-width="3" d="m16 0 0 0" class="key"/>
          </g>
        </g>
        <g fill="none">
          <g>
            <path fill="none" stroke="rgba(153,173,209,1)" stroke-width="1" d="m-252.2543 373.079 157.64 55.2045" class="key"/>
            <path fill="none" stroke="transparent" stroke-width="3" d="m16 0 0 0" class="key"/>
          </g>
        </g>
        <g fill="none">
          <g>
            <path fill="none" stroke="rgba(153,173,209,1)" stroke-width="1" d="m-69.9447 618.028-8.7399-168.4777" class="key"/>
            <path fill="none" stroke="transparent" stroke-width="3" d="m16 0 0 0" class="key"/>
          </g>
        </g>
        <g fill="none">
          <g>
            <path fill="none" stroke="rgba(153,173,209,1)" stroke-width="1" d="m-27.858 251.247-47.294 166.9306" class="key"/>
            <path fill="none" stroke="transparent" stroke-width="3" d="m16 0 0 0" class="key"/>
          </g>
        </g>
        <g fill="none">
          <g>
            <path fill="none" stroke="rgba(153,173,209,1)" stroke-width="1" d="m-90.6138 422.0486-135.4348-140.594" class="key"/>
            <path fill="none" stroke="transparent" stroke-width="3" d="m16 0 0 0" class="key"/>
          </g>
        </g>
        <g fill="none">
          <g>
            <path fill="none" stroke="rgba(153,173,209,1)" stroke-width="1" d="M556.6352 638.8809c-12.2459-29.5642 24.4917-29.5642 12.2459 0" class="key"/>
            <path fill="none" stroke="transparent" stroke-width="3" d="M-6.123-14.782c-12.2458-29.5642 24.4918-29.5642 12.246 0" class="key"/>
          </g>
        </g>
        <g fill="none">
          <g>
            <path fill="none" stroke="rgba(153,173,209,1)" stroke-width="1" d="M717.0114 78.2944c-12.2459-29.5642 24.4917-29.5642 12.2459 0" class="key"/>
            <path fill="none" stroke="transparent" stroke-width="3" d="M-6.123-14.782c-12.2458-29.5642 24.4918-29.5642 12.246 0" class="key"/>
          </g>
        </g>
        <g fill="none">
          <g>
            <path fill="none" stroke="rgba(153,173,209,1)" stroke-width="1" d="M173.9218 624.8404c-12.2459-29.5641 24.4917-29.5641 12.2458 0" class="key"/>
            <path fill="none" stroke="transparent" stroke-width="3" d="M-6.123-14.782c-12.2458-29.5642 24.4918-29.5642 12.246 0" class="key"/>
          </g>
        </g>
        <g fill="none">
          <g>
            <path fill="none" stroke="rgba(153,173,209,1)" stroke-width="1" d="m387.1693 743.2097 161.3353-82.2777" class="key"/>
            <path fill="none" stroke="transparent" stroke-width="3" d="m16 0 0 0" class="key"/>
          </g>
        </g>
        <g fill="none">
          <g>
            <path fill="none" stroke="rgba(153,173,209,1)" stroke-width="1" d="M556.6352 638.8809c-12.2459-29.5642 24.4917-29.5642 12.2459 0" class="key"/>
            <path fill="none" stroke="transparent" stroke-width="3" d="M-6.123-14.782c-12.2458-29.5642 24.4918-29.5642 12.246 0" class="key"/>
          </g>
        </g>
        <g fill="none">
          <g>
            <path fill="none" stroke="rgba(153,173,209,1)" stroke-width="1" d="M692.0444 477.2661c-12.246-29.5641 24.4917-29.5641 12.2458 0" class="key"/>
            <path fill="none" stroke="transparent" stroke-width="3" d="M-6.123-14.782c-12.2458-29.5642 24.4918-29.5642 12.246 0" class="key"/>
          </g>
        </g>
        <g fill="none">
          <g>
            <path fill="none" stroke="rgba(153,173,209,1)" stroke-width="1" d="M302.3545 445.2189c-12.2459-29.5641 24.4917-29.5641 12.2459 0" class="key"/>
            <path fill="none" stroke="transparent" stroke-width="3" d="M-6.123-14.782c-12.2458-29.5642 24.4918-29.5642 12.246 0" class="key"/>
          </g>
        </g>
        <g fill="none">
          <g>
            <path fill="none" stroke="rgba(153,173,209,1)" stroke-width="1" d="M473.0199 425.4027c-12.246-29.5641 24.4917-29.5641 12.2458 0" class="key"/>
            <path fill="none" stroke="transparent" stroke-width="3" d="M-6.123-14.782c-12.2458-29.5642 24.4918-29.5642 12.246 0" class="key"/>
          </g>
        </g>
        <g fill="none">
          <g>
            <path fill="none" stroke="rgba(153,173,209,1)" stroke-width="1" d="m-121.9493 266.147-39.8062-140.745" class="key"/>
            <path fill="none" stroke="transparent" stroke-width="3" d="m16 0 0 0" class="key"/>
          </g>
        </g>
        <g fill="none">
          <g>
            <path fill="none" stroke="rgba(153,173,209,1)" stroke-width="1" d="m-101.6129 280.785 188.6013-8.9446" class="key"/>
            <path fill="none" stroke="transparent" stroke-width="3" d="m16 0 0 0" class="key"/>
          </g>
        </g>
        <g fill="none">
          <g>
            <path fill="none" stroke="rgba(153,173,209,1)" stroke-width="1" d="M-41.7548-198.1361c-12.246-29.5642 24.4917-29.5642 12.2458 0" class="key"/>
            <path fill="none" stroke="transparent" stroke-width="3" d="M-6.123-14.782c-12.2458-29.5642 24.4918-29.5642 12.246 0" class="key"/>
          </g>
        </g>
        <g fill="none">
          <g>
            <path fill="none" stroke="rgba(153,173,209,1)" stroke-width="1" d="m33.8042 151.8116-184.2529-38.5307" class="key"/>
            <path fill="none" stroke="transparent" stroke-width="3" d="m16 0 0 0" class="key"/>
          </g>
        </g>
        <g fill="none">
          <g>
            <path fill="none" stroke="rgba(153,173,209,1)" stroke-width="1" d="m100.5232 255.2707-31.997-206.737" class="key"/>
            <path fill="none" stroke="transparent" stroke-width="3" d="m16 0 0 0" class="key"/>
          </g>
        </g>
        <g fill="none">
          <g>
            <path fill="none" stroke="rgba(153,173,209,1)" stroke-width="1" d="m-104.8376 271.8864 141.5457-107.1431" class="key"/>
            <path fill="none" stroke="transparent" stroke-width="3" d="m16 0 0 0" class="key"/>
          </g>
        </g>
        <g fill="none">
          <g>
            <path fill="none" stroke="rgba(153,173,209,1)" stroke-width="1" d="m50.8979 37.775-201.8266 67.1778" class="key"/>
            <path fill="none" stroke="transparent" stroke-width="3" d="m16 0 0 0" class="key"/>
          </g>
        </g>
        <g fill="none">
          <g>
            <path fill="none" stroke="rgba(153,173,209,1)" stroke-width="1" d="m62.4348 164.4566 163.2638 117.9525" class="key"/>
            <path fill="none" stroke="transparent" stroke-width="3" d="m16 0 0 0" class="key"/>
          </g>
        </g>
        <g fill="none">
          <g>
            <path fill="none" stroke="rgba(153,173,209,1)" stroke-width="1" d="M-172.2328 95.2238c-12.2459-29.5642 24.4917-29.5642 12.2459 0" class="key"/>
            <path fill="none" stroke="transparent" stroke-width="3" d="M-6.123-14.782c-12.2458-29.5642 24.4918-29.5642 12.246 0" class="key"/>
          </g>
        </g>
        <g fill="none">
          <g>
            <path fill="none" stroke="rgba(153,173,209,1)" stroke-width="1" d="m105.734 286.842 33.0078 188.2222" class="key"/>
            <path fill="none" stroke="transparent" stroke-width="3" d="m16 0 0 0" class="key"/>
          </g>
        </g>
        <g fill="none">
          <g>
            <path fill="none" stroke="rgba(153,173,209,1)" stroke-width="1" d="m113.2184 258.795 109.3658-131.1296" class="key"/>
            <path fill="none" stroke="transparent" stroke-width="3" d="m16 0 0 0" class="key"/>
          </g>
        </g>
        <g fill="none">
          <g>
            <path fill="none" stroke="rgba(153,173,209,1)" stroke-width="1" d="M-243.2718 255.1494c-12.2459-29.5642 24.4917-29.5642 12.2459 0" class="key"/>
            <path fill="none" stroke="transparent" stroke-width="3" d="M-6.123-14.782c-12.2458-29.5642 24.4918-29.5642 12.246 0" class="key"/>
          </g>
        </g>
        <g fill="none">
          <g>
            <path fill="none" stroke="rgba(153,173,209,1)" stroke-width="1" d="m81.2707 27.7008 176.6558-58.387" class="key"/>
            <path fill="none" stroke="transparent" stroke-width="3" d="m16 0 0 0" class="key"/>
          </g>
        </g>
        <g fill="none">
          <g>
            <path fill="none" stroke="rgba(153,173,209,1)" stroke-width="1" d="m-18.0561 250.8995 57.1844 158.15" class="key"/>
            <path fill="none" stroke="transparent" stroke-width="3" d="m16 0 0 0" class="key"/>
          </g>
        </g>
        <g fill="none">
          <g>
            <path fill="none" stroke="rgba(153,173,209,1)" stroke-width="1" d="m40.353 141.935-107.3347-154.912" class="key"/>
            <path fill="none" stroke="transparent" stroke-width="3" d="m16 0 0 0" class="key"/>
          </g>
        </g>
        <g fill="none">
          <g>
            <path fill="none" stroke="rgba(153,173,209,1)" stroke-width="1" d="m-105.578 292.1068 138.13 121.4255" class="key"/>
            <path fill="none" stroke="transparent" stroke-width="3" d="m16 0 0 0" class="key"/>
          </g>
        </g>
        <g fill="none" transform="matrix(1 0 0 1 617.801 337.0087)">
          <g>
            <circle r="16" fill="rgba(23,131,255,1)" stroke="rgba(0,0,0,1)" stroke-width="0" class="key"/>
          </g>
        </g>
        <g fill="none" transform="matrix(1 0 0 1 238.668 291.779)">
          <g>
            <circle r="16" fill="rgba(23,131,255,1)" stroke="rgba(0,0,0,1)" stroke-width="0" class="key"/>
          </g>
        </g>
        <g fill="none" transform="matrix(1 0 0 1 102.9704 271.0824)">
          <g>
            <circle r="16" fill="rgba(23,131,255,1)" stroke="rgba(0,0,0,1)" stroke-width="0" class="key"/>
          </g>
        </g>
        <g fill="none" transform="matrix(1 0 0 1 785.2374 279.3418)">
          <g>
            <circle r="16" fill="rgba(23,131,255,1)" stroke="rgba(0,0,0,1)" stroke-width="0" class="key"/>
          </g>
        </g>
        <g fill="none" transform="matrix(1 0 0 1 639.1759 -135.1938)">
          <g>
            <circle r="16" fill="rgba(23,131,255,1)" stroke="rgba(0,0,0,1)" stroke-width="0" class="key"/>
          </g>
        </g>
        <g fill="none" transform="matrix(1 0 0 1 141.5054 490.8237)">
          <g>
            <circle r="16" fill="rgba(23,131,255,1)" stroke="rgba(0,0,0,1)" stroke-width="0" class="key"/>
          </g>
        </g>
        <g fill="none" transform="matrix(1 0 0 1 372.9158 750.4787)">
          <g>
            <circle r="16" fill="rgba(23,131,255,1)" stroke="rgba(0,0,0,1)" stroke-width="0" class="key"/>
          </g>
        </g>
        <g fill="none" transform="matrix(1 0 0 1 404.4087 -241.254)">
          <g>
            <circle r="16" fill="rgba(23,131,255,1)" stroke="rgba(0,0,0,1)" stroke-width="0" class="key"/>
          </g>
        </g>
        <g fill="none" transform="matrix(1 0 0 1 66.079 32.722)">
          <g>
            <circle r="16" fill="rgba(23,131,255,1)" stroke="rgba(0,0,0,1)" stroke-width="0" class="key"/>
          </g>
        </g>
        <g fill="none" transform="matrix(1 0 0 1 -35.632 -183.354)">
          <g>
            <circle r="16" fill="rgba(23,131,255,1)" stroke="rgba(0,0,0,1)" stroke-width="0" class="key"/>
          </g>
        </g>
        <g fill="none" transform="matrix(1 0 0 1 -166.1099 110.0059)">
          <g>
            <circle r="16" fill="rgba(23,131,255,1)" stroke="rgba(0,0,0,1)" stroke-width="0" class="key"/>
          </g>
        </g>
        <g fill="none" transform="matrix(1 0 0 1 698.1673 492.0482)">
          <g>
            <circle r="16" fill="rgba(23,131,255,1)" stroke="rgba(0,0,0,1)" stroke-width="0" class="key"/>
          </g>
        </g>
        <g fill="none" transform="matrix(1 0 0 1 479.1428 440.1848)">
          <g>
            <circle r="16" fill="rgba(23,131,255,1)" stroke="rgba(0,0,0,1)" stroke-width="0" class="key"/>
          </g>
        </g>
        <g fill="none" transform="matrix(1 0 0 1 562.7581 653.663)">
          <g>
            <circle r="16" fill="rgba(23,131,255,1)" stroke="rgba(0,0,0,1)" stroke-width="0" class="key"/>
          </g>
        </g>
        <g fill="none" transform="matrix(1 0 0 1 723.1343 93.0764)">
          <g>
            <circle r="16" fill="rgba(23,131,255,1)" stroke="rgba(0,0,0,1)" stroke-width="0" class="key"/>
          </g>
        </g>
        <g fill="none" transform="matrix(1 0 0 1 550.9478 38.2617)">
          <g>
            <circle r="16" fill="rgba(23,131,255,1)" stroke="rgba(0,0,0,1)" stroke-width="0" class="key"/>
          </g>
        </g>
        <g fill="none" transform="matrix(1 0 0 1 158.31 -136.8061)">
          <g>
            <circle r="16" fill="rgba(23,131,255,1)" stroke="rgba(0,0,0,1)" stroke-width="0" class="key"/>
          </g>
        </g>
        <g fill="none" transform="matrix(1 0 0 1 -69.1158 634.0065)">
          <g>
            <circle r="16" fill="rgba(23,131,255,1)" stroke="rgba(0,0,0,1)" stroke-width="0" class="key"/>
          </g>
        </g>
        <g fill="none" transform="matrix(1 0 0 1 -23.4967 235.8529)">
          <g>
            <circle r="16" fill="rgba(23,131,255,1)" stroke="rgba(0,0,0,1)" stroke-width="0" class="key"/>
          </g>
        </g>
        <g fill="none" transform="matrix(1 0 0 1 -79.5135 433.5717)">
          <g>
            <circle r="16" fill="rgba(23,131,255,1)" stroke="rgba(0,0,0,1)" stroke-width="0" class="key"/>
          </g>
        </g>
        <g fill="none" transform="matrix(1 0 0 1 -237.1489 269.9315)">
          <g>
            <circle r="16" fill="rgba(23,131,255,1)" stroke="rgba(0,0,0,1)" stroke-width="0" class="key"/>
          </g>
        </g>
        <g fill="none" transform="matrix(1 0 0 1 232.8322 115.3781)">
          <g>
            <circle r="16" fill="rgba(23,131,255,1)" stroke="rgba(0,0,0,1)" stroke-width="0" class="key"/>
          </g>
        </g>
        <g fill="none" transform="matrix(1 0 0 1 49.4654 155.0866)">
          <g>
            <circle r="16" fill="rgba(23,131,255,1)" stroke="rgba(0,0,0,1)" stroke-width="0" class="key"/>
          </g>
        </g>
        <g fill="none" transform="matrix(1 0 0 1 403.6997 602.7128)">
          <g>
            <circle r="16" fill="rgba(23,131,255,1)" stroke="rgba(0,0,0,1)" stroke-width="0" class="key"/>
          </g>
        </g>
        <g fill="none" transform="matrix(1 0 0 1 515.2294 194.2636)">
          <g>
            <circle r="16" fill="rgba(23,131,255,1)" stroke="rgba(0,0,0,1)" stroke-width="0" class="key"/>
          </g>
        </g>
        <g fill="none" transform="matrix(1 0 0 1 173.0085 793.0777)">
          <g>
            <circle r="16" fill="rgba(23,131,255,1)" stroke="rgba(0,0,0,1)" stroke-width="0" class="key"/>
          </g>
        </g>
        <g fill="none" transform="matrix(1 0 0 1 308.4774 460.001)">
          <g>
            <circle r="16" fill="rgba(23,131,255,1)" stroke="rgba(0,0,0,1)" stroke-width="0" class="key"/>
          </g>
        </g>
        <g fill="none" transform="matrix(1 0 0 1 -117.5949 281.543)">
          <g>
            <circle r="16" fill="rgba(23,131,255,1)" stroke="rgba(0,0,0,1)" stroke-width="0" class="key"/>
          </g>
        </g>
        <g fill="none" transform="matrix(1 0 0 1 180.0447 639.6225)">
          <g>
            <circle r="16" fill="rgba(23,131,255,1)" stroke="rgba(0,0,0,1)" stroke-width="0" class="key"/>
          </g>
        </g>
        <g fill="none" transform="matrix(1 0 0 1 212.377 -294.317)">
          <g>
            <circle r="16" fill="rgba(23,131,255,1)" stroke="rgba(0,0,0,1)" stroke-width="0" class="key"/>
          </g>
        </g>
        <g fill="none" transform="matrix(1 0 0 1 -267.3551 367.7907)">
          <g>
            <circle r="16" fill="rgba(23,131,255,1)" stroke="rgba(0,0,0,1)" stroke-width="0" class="key"/>
          </g>
        </g>
        <g fill="none" transform="matrix(1 0 0 1 366.7208 137.6826)">
          <g>
            <circle r="16" fill="rgba(23,131,255,1)" stroke="rgba(0,0,0,1)" stroke-width="0" class="key"/>
          </g>
        </g>
        <g fill="none" transform="matrix(1 0 0 1 400.3852 269.7553)">
          <g>
            <circle r="16" fill="rgba(23,131,255,1)" stroke="rgba(0,0,0,1)" stroke-width="0" class="key"/>
          </g>
        </g>
        <g fill="none" transform="matrix(1 0 0 1 447.2736 -69.167)">
          <g>
            <circle r="16" fill="rgba(23,131,255,1)" stroke="rgba(0,0,0,1)" stroke-width="0" class="key"/>
          </g>
        </g>
        <g fill="none" transform="matrix(1 0 0 1 44.5689 424.096)">
          <g>
            <circle r="16" fill="rgba(23,131,255,1)" stroke="rgba(0,0,0,1)" stroke-width="0" class="key"/>
          </g>
        </g>
        <g fill="none" transform="matrix(1 0 0 1 -76.094 -26.1286)">
          <g>
            <circle r="16" fill="rgba(23,131,255,1)" stroke="rgba(0,0,0,1)" stroke-width="0" class="key"/>
          </g>
        </g>
        <g fill="none" transform="matrix(1 0 0 1 273.1183 -35.7073)">
          <g>
            <circle r="16" fill="rgba(23,131,255,1)" stroke="rgba(0,0,0,1)" stroke-width="0" class="key"/>
          </g>
        </g>
      </g>
    </g>
  </g>
</svg>
