<svg xmlns="http://www.w3.org/2000/svg" width="500" height="500" color-interpolation-filters="sRGB" style="background: transparent; outline: none;" tabindex="1">
  <g>
    <g fill="none">
      <g fill="none" class="elements">
        <g fill="none" transform="matrix(1 0 0 1 252.9536 253.4304)">
          <g>
            <circle r="0" fill="rgba(89,161,79,1)" stroke="rgba(0,0,0,1)" stroke-width="0" class="key"/>
          </g>
        </g>
        <g fill="none" transform="matrix(1 0 0 1 165.3072 366.3513)">
          <g>
            <circle r="11.5485" fill="rgba(242,142,44,1)" stroke="rgba(0,0,0,1)" stroke-width="0" class="key"/>
          </g>
        </g>
        <g fill="none" transform="matrix(1 0 0 1 75.3507 247.2076)">
          <g>
            <circle r="7.3227" fill="rgba(225,87,89,1)" stroke="rgba(0,0,0,1)" stroke-width="0" class="key"/>
          </g>
        </g>
        <g fill="none" transform="matrix(1 0 0 1 346.2087 369.0247)">
          <g>
            <circle r="18.0969" fill="rgba(118,183,178,1)" stroke="rgba(0,0,0,1)" stroke-width="0" class="key"/>
          </g>
        </g>
        <g fill="none" transform="matrix(1 0 0 1 124.8752 363.7036)">
          <g>
            <circle r="13.8711" fill="rgba(78,121,167,1)" stroke="rgba(0,0,0,1)" stroke-width="0" class="key"/>
          </g>
        </g>
        <g fill="none" transform="matrix(1 0 0 1 387.3985 318.0297)">
          <g>
            <circle r="9.6454" fill="rgba(242,142,44,1)" stroke="rgba(0,0,0,1)" stroke-width="0" class="key"/>
          </g>
        </g>
        <g fill="none" transform="matrix(1 0 0 1 396.2554 351.0985)">
          <g>
            <circle r="5.4196" fill="rgba(225,87,89,1)" stroke="rgba(0,0,0,1)" stroke-width="0" class="key"/>
          </g>
        </g>
        <g fill="none" transform="matrix(1 0 0 1 123.9628 197.075)">
          <g>
            <circle r="16.1938" fill="rgba(118,183,178,1)" stroke="rgba(0,0,0,1)" stroke-width="0" class="key"/>
          </g>
        </g>
        <g fill="none" transform="matrix(1 0 0 1 402.608 333.3943)">
          <g>
            <circle r="11.968" fill="rgba(78,121,167,1)" stroke="rgba(0,0,0,1)" stroke-width="0" class="key"/>
          </g>
        </g>
        <g fill="none" transform="matrix(1 0 0 1 146.386 364.9108)">
          <g>
            <circle r="7.7423" fill="rgba(242,142,44,1)" stroke="rgba(0,0,0,1)" stroke-width="0" class="key"/>
          </g>
        </g>
        <g fill="none" transform="matrix(1 0 0 1 256.4258 93.447)">
          <g>
            <circle r="18.5165" fill="rgba(225,87,89,1)" stroke="rgba(0,0,0,1)" stroke-width="0" class="key"/>
          </g>
        </g>
        <g fill="none" transform="matrix(1 0 0 1 275.1005 422.999)">
          <g>
            <circle r="14.2907" fill="rgba(118,183,178,1)" stroke="rgba(0,0,0,1)" stroke-width="0" class="key"/>
          </g>
        </g>
        <g fill="none" transform="matrix(1 0 0 1 124.2171 83.0192)">
          <g>
            <circle r="10.065" fill="rgba(78,121,167,1)" stroke="rgba(0,0,0,1)" stroke-width="0" class="key"/>
          </g>
        </g>
        <g fill="none" transform="matrix(1 0 0 1 233.1706 87.7394)">
          <g>
            <circle r="5.8392" fill="rgba(242,142,44,1)" stroke="rgba(0,0,0,1)" stroke-width="0" class="key"/>
          </g>
        </g>
        <g fill="none" transform="matrix(1 0 0 1 207.448 393.8682)">
          <g>
            <circle r="16.6134" fill="rgba(225,87,89,1)" stroke="rgba(0,0,0,1)" stroke-width="0" class="key"/>
          </g>
        </g>
        <g fill="none" transform="matrix(1 0 0 1 153.6313 153.2754)">
          <g>
            <circle r="12.3876" fill="rgba(118,183,178,1)" stroke="rgba(0,0,0,1)" stroke-width="0" class="key"/>
          </g>
        </g>
        <g fill="none" transform="matrix(1 0 0 1 282.8196 402.0934)">
          <g>
            <circle r="8.1619" fill="rgba(78,121,167,1)" stroke="rgba(0,0,0,1)" stroke-width="0" class="key"/>
          </g>
        </g>
        <g fill="none" transform="matrix(1 0 0 1 101.2899 243.0458)">
          <g>
            <circle r="18.9361" fill="rgba(242,142,44,1)" stroke="rgba(0,0,0,1)" stroke-width="0" class="key"/>
          </g>
        </g>
        <g fill="none" transform="matrix(1 0 0 1 397.3859 183.9938)">
          <g>
            <circle r="14.7103" fill="rgba(225,87,89,1)" stroke="rgba(0,0,0,1)" stroke-width="0" class="key"/>
          </g>
        </g>
        <g fill="none" transform="matrix(1 0 0 1 256.683 439.2837)">
          <g>
            <circle r="10.4845" fill="rgba(118,183,178,1)" stroke="rgba(0,0,0,1)" stroke-width="0" class="key"/>
          </g>
        </g>
        <g fill="none" transform="matrix(1 0 0 1 115.5713 125.1886)">
          <g>
            <circle r="6.2588" fill="rgba(78,121,167,1)" stroke="rgba(0,0,0,1)" stroke-width="0" class="key"/>
          </g>
        </g>
        <g fill="none" transform="matrix(1 0 0 1 368.5324 171.3838)">
          <g>
            <circle r="17.033" fill="rgba(242,142,44,1)" stroke="rgba(0,0,0,1)" stroke-width="0" class="key"/>
          </g>
        </g>
        <g fill="none" transform="matrix(1 0 0 1 107.793 343.5775)">
          <g>
            <circle r="12.8072" fill="rgba(225,87,89,1)" stroke="rgba(0,0,0,1)" stroke-width="0" class="key"/>
          </g>
        </g>
        <g fill="none" transform="matrix(1 0 0 1 201.7668 127.9819)">
          <g>
            <circle r="8.5815" fill="rgba(118,183,178,1)" stroke="rgba(0,0,0,1)" stroke-width="0" class="key"/>
          </g>
        </g>
        <g fill="none" transform="matrix(1 0 0 1 372.926 343.009)">
          <g>
            <circle r="19.3557" fill="rgba(78,121,167,1)" stroke="rgba(0,0,0,1)" stroke-width="0" class="key"/>
          </g>
        </g>
        <g fill="none" transform="matrix(1 0 0 1 134.4779 133.7591)">
          <g>
            <circle r="15.1299" fill="rgba(242,142,44,1)" stroke="rgba(0,0,0,1)" stroke-width="0" class="key"/>
          </g>
        </g>
        <g fill="none" transform="matrix(1 0 0 1 342.2937 161.827)">
          <g>
            <circle r="10.9041" fill="rgba(225,87,89,1)" stroke="rgba(0,0,0,1)" stroke-width="0" class="key"/>
          </g>
        </g>
        <g fill="none" transform="matrix(1 0 0 1 393.875 390.757)">
          <g>
            <circle r="6.6784" fill="rgba(118,183,178,1)" stroke="rgba(0,0,0,1)" stroke-width="0" class="key"/>
          </g>
        </g>
        <g fill="none" transform="matrix(1 0 0 1 176.6345 134.5223)">
          <g>
            <circle r="17.4526" fill="rgba(78,121,167,1)" stroke="rgba(0,0,0,1)" stroke-width="0" class="key"/>
          </g>
        </g>
        <g fill="none" transform="matrix(1 0 0 1 399.57 241.3994)">
          <g>
            <circle r="13.2268" fill="rgba(242,142,44,1)" stroke="rgba(0,0,0,1)" stroke-width="0" class="key"/>
          </g>
        </g>
        <g fill="none" transform="matrix(1 0 0 1 29.6256 296.8823)">
          <g>
            <circle r="9.0011" fill="rgba(225,87,89,1)" stroke="rgba(0,0,0,1)" stroke-width="0" class="key"/>
          </g>
        </g>
        <g fill="none" transform="matrix(1 0 0 1 314.5495 70.7686)">
          <g>
            <circle r="19.7753" fill="rgba(118,183,178,1)" stroke="rgba(0,0,0,1)" stroke-width="0" class="key"/>
          </g>
        </g>
        <g fill="none" transform="matrix(1 0 0 1 260.1887 397.0843)">
          <g>
            <circle r="15.5495" fill="rgba(78,121,167,1)" stroke="rgba(0,0,0,1)" stroke-width="0" class="key"/>
          </g>
        </g>
        <g fill="none" transform="matrix(1 0 0 1 126.5366 158.7917)">
          <g>
            <circle r="11.3237" fill="rgba(242,142,44,1)" stroke="rgba(0,0,0,1)" stroke-width="0" class="key"/>
          </g>
        </g>
        <g fill="none" transform="matrix(1 0 0 1 391.722 295.3716)">
          <g>
            <circle r="7.098" fill="rgba(225,87,89,1)" stroke="rgba(0,0,0,1)" stroke-width="0" class="key"/>
          </g>
        </g>
        <g fill="none" transform="matrix(1 0 0 1 142.3429 390.0057)">
          <g>
            <circle r="17.8722" fill="rgba(118,183,178,1)" stroke="rgba(0,0,0,1)" stroke-width="0" class="key"/>
          </g>
        </g>
        <g fill="none" transform="matrix(1 0 0 1 242.773 122.4227)">
          <g>
            <circle r="13.6464" fill="rgba(78,121,167,1)" stroke="rgba(0,0,0,1)" stroke-width="0" class="key"/>
          </g>
        </g>
        <g fill="none" transform="matrix(1 0 0 1 368.7844 400.8093)">
          <g>
            <circle r="9.4206" fill="rgba(242,142,44,1)" stroke="rgba(0,0,0,1)" stroke-width="0" class="key"/>
          </g>
        </g>
        <g fill="none" transform="matrix(1 0 0 1 108.5878 325.657)">
          <g>
            <circle r="5.1949" fill="rgba(225,87,89,1)" stroke="rgba(0,0,0,1)" stroke-width="0" class="key"/>
          </g>
        </g>
        <g fill="none" transform="matrix(1 0 0 1 307.4686 126.7999)">
          <g>
            <circle r="15.9691" fill="rgba(118,183,178,1)" stroke="rgba(0,0,0,1)" stroke-width="0" class="key"/>
          </g>
        </g>
        <g fill="none" transform="matrix(1 0 0 1 188.6347 414.9002)">
          <g>
            <circle r="11.7433" fill="rgba(78,121,167,1)" stroke="rgba(0,0,0,1)" stroke-width="0" class="key"/>
          </g>
        </g>
        <g fill="none" transform="matrix(1 0 0 1 192.002 115.3738)">
          <g>
            <circle r="7.5176" fill="rgba(242,142,44,1)" stroke="rgba(0,0,0,1)" stroke-width="0" class="key"/>
          </g>
        </g>
        <g fill="none" transform="matrix(1 0 0 1 407.1986 275.3615)">
          <g>
            <circle r="18.2918" fill="rgba(225,87,89,1)" stroke="rgba(0,0,0,1)" stroke-width="0" class="key"/>
          </g>
        </g>
        <g fill="none" transform="matrix(1 0 0 1 97.2027 275.5419)">
          <g>
            <circle r="14.066" fill="rgba(118,183,178,1)" stroke="rgba(0,0,0,1)" stroke-width="0" class="key"/>
          </g>
        </g>
        <g fill="none" transform="matrix(1 0 0 1 275.3714 114.4244)">
          <g>
            <circle r="9.8402" fill="rgba(78,121,167,1)" stroke="rgba(0,0,0,1)" stroke-width="0" class="key"/>
          </g>
        </g>
        <g fill="none" transform="matrix(1 0 0 1 293.8996 394.4488)">
          <g>
            <circle r="5.6145" fill="rgba(242,142,44,1)" stroke="rgba(0,0,0,1)" stroke-width="0" class="key"/>
          </g>
        </g>
        <g fill="none" transform="matrix(1 0 0 1 102.591 172.5312)">
          <g>
            <circle r="16.3887" fill="rgba(225,87,89,1)" stroke="rgba(0,0,0,1)" stroke-width="0" class="key"/>
          </g>
        </g>
        <g fill="none" transform="matrix(1 0 0 1 357.3523 144.6785)">
          <g>
            <circle r="12.1629" fill="rgba(118,183,178,1)" stroke="rgba(0,0,0,1)" stroke-width="0" class="key"/>
          </g>
        </g>
        <g fill="none" transform="matrix(1 0 0 1 141.902 350.1564)">
          <g>
            <circle r="7.9371" fill="rgba(78,121,167,1)" stroke="rgba(0,0,0,1)" stroke-width="0" class="key"/>
          </g>
        </g>
        <g fill="none" transform="matrix(1 0 0 1 215.899 104.7144)">
          <g>
            <circle r="18.7114" fill="rgba(242,142,44,1)" stroke="rgba(0,0,0,1)" stroke-width="0" class="key"/>
          </g>
        </g>
        <g fill="none" transform="matrix(1 0 0 1 409.1487 307.9428)">
          <g>
            <circle r="14.4856" fill="rgba(225,87,89,1)" stroke="rgba(0,0,0,1)" stroke-width="0" class="key"/>
          </g>
        </g>
        <g fill="none" transform="matrix(1 0 0 1 63.9263 265.1563)">
          <g>
            <circle r="10.2598" fill="rgba(118,183,178,1)" stroke="rgba(0,0,0,1)" stroke-width="0" class="key"/>
          </g>
        </g>
        <g fill="none" transform="matrix(1 0 0 1 390.4535 165.002)">
          <g>
            <circle r="6.0341" fill="rgba(78,121,167,1)" stroke="rgba(0,0,0,1)" stroke-width="0" class="key"/>
          </g>
        </g>
        <g fill="none" transform="matrix(1 0 0 1 304.646 413.7956)">
          <g>
            <circle r="16.8083" fill="rgba(242,142,44,1)" stroke="rgba(0,0,0,1)" stroke-width="0" class="key"/>
          </g>
        </g>
        <g fill="none" transform="matrix(1 0 0 1 143.0644 175.7821)">
          <g>
            <circle r="12.5825" fill="rgba(225,87,89,1)" stroke="rgba(0,0,0,1)" stroke-width="0" class="key"/>
          </g>
        </g>
        <g fill="none" transform="matrix(1 0 0 1 403.6848 123.2879)">
          <g>
            <circle r="8.3567" fill="rgba(118,183,178,1)" stroke="rgba(0,0,0,1)" stroke-width="0" class="key"/>
          </g>
        </g>
        <g fill="none" transform="matrix(1 0 0 1 70.0483 383.6618)">
          <g>
            <circle r="19.131" fill="rgba(78,121,167,1)" stroke="rgba(0,0,0,1)" stroke-width="0" class="key"/>
          </g>
        </g>
        <g fill="none" transform="matrix(1 0 0 1 294.5688 98.989)">
          <g>
            <circle r="14.9052" fill="rgba(242,142,44,1)" stroke="rgba(0,0,0,1)" stroke-width="0" class="key"/>
          </g>
        </g>
        <g fill="none" transform="matrix(1 0 0 1 348.9308 397.55)">
          <g>
            <circle r="10.6794" fill="rgba(225,87,89,1)" stroke="rgba(0,0,0,1)" stroke-width="0" class="key"/>
          </g>
        </g>
        <g fill="none" transform="matrix(1 0 0 1 105.884 218.2573)">
          <g>
            <circle r="6.4536" fill="rgba(118,183,178,1)" stroke="rgba(0,0,0,1)" stroke-width="0" class="key"/>
          </g>
        </g>
        <g fill="none" transform="matrix(1 0 0 1 386.4417 142.2166)">
          <g>
            <circle r="17.2279" fill="rgba(78,121,167,1)" stroke="rgba(0,0,0,1)" stroke-width="0" class="key"/>
          </g>
        </g>
        <g fill="none" transform="matrix(1 0 0 1 233.609 407.2808)">
          <g>
            <circle r="13.0021" fill="rgba(242,142,44,1)" stroke="rgba(0,0,0,1)" stroke-width="0" class="key"/>
          </g>
        </g>
        <g fill="none" transform="matrix(1 0 0 1 154.286 121.2708)">
          <g>
            <circle r="8.7763" fill="rgba(225,87,89,1)" stroke="rgba(0,0,0,1)" stroke-width="0" class="key"/>
          </g>
        </g>
        <g fill="none" transform="matrix(1 0 0 1 431.9265 344.6361)">
          <g>
            <circle r="19.5506" fill="rgba(118,183,178,1)" stroke="rgba(0,0,0,1)" stroke-width="0" class="key"/>
          </g>
        </g>
        <g fill="none" transform="matrix(1 0 0 1 109.9583 301.8252)">
          <g>
            <circle r="15.3248" fill="rgba(78,121,167,1)" stroke="rgba(0,0,0,1)" stroke-width="0" class="key"/>
          </g>
        </g>
        <g fill="none" transform="matrix(1 0 0 1 316.6404 40.075)">
          <g>
            <circle r="11.099" fill="rgba(242,142,44,1)" stroke="rgba(0,0,0,1)" stroke-width="0" class="key"/>
          </g>
        </g>
        <g fill="none" transform="matrix(1 0 0 1 236.8153 426.765)">
          <g>
            <circle r="6.8732" fill="rgba(225,87,89,1)" stroke="rgba(0,0,0,1)" stroke-width="0" class="key"/>
          </g>
        </g>
        <g fill="none" transform="matrix(1 0 0 1 76.8123 150.4364)">
          <g>
            <circle r="17.6475" fill="rgba(118,183,178,1)" stroke="rgba(0,0,0,1)" stroke-width="0" class="key"/>
          </g>
        </g>
        <g fill="none" transform="matrix(1 0 0 1 375.7301 201.6934)">
          <g>
            <circle r="13.4217" fill="rgba(78,121,167,1)" stroke="rgba(0,0,0,1)" stroke-width="0" class="key"/>
          </g>
        </g>
        <g fill="none" transform="matrix(1 0 0 1 119.9768 279.6149)">
          <g>
            <circle r="9.1959" fill="rgba(242,142,44,1)" stroke="rgba(0,0,0,1)" stroke-width="0" class="key"/>
          </g>
        </g>
        <g fill="none" transform="matrix(1 0 0 1 233.9319 62.3178)">
          <g>
            <circle r="19.9701" fill="rgba(225,87,89,1)" stroke="rgba(0,0,0,1)" stroke-width="0" class="key"/>
          </g>
        </g>
        <g fill="none" transform="matrix(1 0 0 1 441.4352 378.5134)">
          <g>
            <circle r="15.7444" fill="rgba(118,183,178,1)" stroke="rgba(0,0,0,1)" stroke-width="0" class="key"/>
          </g>
        </g>
        <g fill="none" transform="matrix(1 0 0 1 65.7406 315.2325)">
          <g>
            <circle r="11.5186" fill="rgba(78,121,167,1)" stroke="rgba(0,0,0,1)" stroke-width="0" class="key"/>
          </g>
        </g>
        <g fill="none" transform="matrix(1 0 0 1 414.4534 196.4375)">
          <g>
            <circle r="7.2928" fill="rgba(242,142,44,1)" stroke="rgba(0,0,0,1)" stroke-width="0" class="key"/>
          </g>
        </g>
        <g fill="none" transform="matrix(1 0 0 1 230.7987 450.8396)">
          <g>
            <circle r="18.0671" fill="rgba(225,87,89,1)" stroke="rgba(0,0,0,1)" stroke-width="0" class="key"/>
          </g>
        </g>
        <g fill="none" transform="matrix(1 0 0 1 107.3285 142.909)">
          <g>
            <circle r="13.8413" fill="rgba(118,183,178,1)" stroke="rgba(0,0,0,1)" stroke-width="0" class="key"/>
          </g>
        </g>
        <g fill="none" transform="matrix(1 0 0 1 429.111 292.544)">
          <g>
            <circle r="9.6155" fill="rgba(78,121,167,1)" stroke="rgba(0,0,0,1)" stroke-width="0" class="key"/>
          </g>
        </g>
        <g fill="none" transform="matrix(1 0 0 1 139.9232 337.1131)">
          <g>
            <circle r="5.3897" fill="rgba(242,142,44,1)" stroke="rgba(0,0,0,1)" stroke-width="0" class="key"/>
          </g>
        </g>
        <g fill="none" transform="matrix(1 0 0 1 269.8156 61.5824)">
          <g>
            <circle r="16.164" fill="rgba(225,87,89,1)" stroke="rgba(0,0,0,1)" stroke-width="0" class="key"/>
          </g>
        </g>
        <g fill="none" transform="matrix(1 0 0 1 304.0525 380.2458)">
          <g>
            <circle r="11.9382" fill="rgba(118,183,178,1)" stroke="rgba(0,0,0,1)" stroke-width="0" class="key"/>
          </g>
        </g>
        <g fill="none" transform="matrix(1 0 0 1 75.6536 278.4075)">
          <g>
            <circle r="7.7124" fill="rgba(78,121,167,1)" stroke="rgba(0,0,0,1)" stroke-width="0" class="key"/>
          </g>
        </g>
        <g fill="none" transform="matrix(1 0 0 1 429.4836 175.8307)">
          <g>
            <circle r="18.4866" fill="rgba(242,142,44,1)" stroke="rgba(0,0,0,1)" stroke-width="0" class="key"/>
          </g>
        </g>
        <g fill="none" transform="matrix(1 0 0 1 212.4659 424.3573)">
          <g>
            <circle r="14.2609" fill="rgba(225,87,89,1)" stroke="rgba(0,0,0,1)" stroke-width="0" class="key"/>
          </g>
        </g>
        <g fill="none" transform="matrix(1 0 0 1 162.873 104.7312)">
          <g>
            <circle r="10.0351" fill="rgba(118,183,178,1)" stroke="rgba(0,0,0,1)" stroke-width="0" class="key"/>
          </g>
        </g>
        <g fill="none" transform="matrix(1 0 0 1 407.2928 350.4191)">
          <g>
            <circle r="5.8093" fill="rgba(78,121,167,1)" stroke="rgba(0,0,0,1)" stroke-width="0" class="key"/>
          </g>
        </g>
        <g fill="none" transform="matrix(1 0 0 1 54.0948 289.7547)">
          <g>
            <circle r="16.5836" fill="rgba(242,142,44,1)" stroke="rgba(0,0,0,1)" stroke-width="0" class="key"/>
          </g>
        </g>
        <g fill="none" transform="matrix(1 0 0 1 321.4004 102.1036)">
          <g>
            <circle r="12.3578" fill="rgba(225,87,89,1)" stroke="rgba(0,0,0,1)" stroke-width="0" class="key"/>
          </g>
        </g>
        <g fill="none" transform="matrix(1 0 0 1 205.3632 445.4811)">
          <g>
            <circle r="8.132" fill="rgba(118,183,178,1)" stroke="rgba(0,0,0,1)" stroke-width="0" class="key"/>
          </g>
        </g>
        <g fill="none" transform="matrix(1 0 0 1 104.1357 103.6292)">
          <g>
            <circle r="18.9062" fill="rgba(78,121,167,1)" stroke="rgba(0,0,0,1)" stroke-width="0" class="key"/>
          </g>
        </g>
        <g fill="none" transform="matrix(1 0 0 1 401.0472 213.6708)">
          <g>
            <circle r="14.6805" fill="rgba(242,142,44,1)" stroke="rgba(0,0,0,1)" stroke-width="0" class="key"/>
          </g>
        </g>
        <g fill="none" transform="matrix(1 0 0 1 124.2344 411.691)">
          <g>
            <circle r="10.4547" fill="rgba(225,87,89,1)" stroke="rgba(0,0,0,1)" stroke-width="0" class="key"/>
          </g>
        </g>
        <g fill="none" transform="matrix(1 0 0 1 289.1201 72.9434)">
          <g>
            <circle r="6.2289" fill="rgba(118,183,178,1)" stroke="rgba(0,0,0,1)" stroke-width="0" class="key"/>
          </g>
        </g>
        <g fill="none" transform="matrix(1 0 0 1 409.3461 373.025)">
          <g>
            <circle r="17.0032" fill="rgba(78,121,167,1)" stroke="rgba(0,0,0,1)" stroke-width="0" class="key"/>
          </g>
        </g>
        <g fill="none" transform="matrix(1 0 0 1 82.2749 297.6484)">
          <g>
            <circle r="12.7774" fill="rgba(242,142,44,1)" stroke="rgba(0,0,0,1)" stroke-width="0" class="key"/>
          </g>
        </g>
        <g fill="none" transform="matrix(1 0 0 1 404.5724 162.0996)">
          <g>
            <circle r="8.5516" fill="rgba(225,87,89,1)" stroke="rgba(0,0,0,1)" stroke-width="0" class="key"/>
          </g>
        </g>
        <g fill="none" transform="matrix(1 0 0 1 178.0358 444.0004)">
          <g>
            <circle r="19.3258" fill="rgba(118,183,178,1)" stroke="rgba(0,0,0,1)" stroke-width="0" class="key"/>
          </g>
        </g>
        <g fill="none" transform="matrix(1 0 0 1 138.0104 103.7704)">
          <g>
            <circle r="15.1001" fill="rgba(78,121,167,1)" stroke="rgba(0,0,0,1)" stroke-width="0" class="key"/>
          </g>
        </g>
        <g fill="none" transform="matrix(1 0 0 1 436.2544 273.5045)">
          <g>
            <circle r="10.8743" fill="rgba(242,142,44,1)" stroke="rgba(0,0,0,1)" stroke-width="0" class="key"/>
          </g>
        </g>
        <g fill="none" transform="matrix(1 0 0 1 128.8676 343.9733)">
          <g>
            <circle r="6.6485" fill="rgba(225,87,89,1)" stroke="rgba(0,0,0,1)" stroke-width="0" class="key"/>
          </g>
        </g>
        <g fill="none" transform="matrix(1 0 0 1 346.492 51.9034)">
          <g>
            <circle r="17.4227" fill="rgba(118,183,178,1)" stroke="rgba(0,0,0,1)" stroke-width="0" class="key"/>
          </g>
        </g>
        <g fill="none" transform="matrix(1 0 0 1 325.8192 392.605)">
          <g>
            <circle r="13.197" fill="rgba(78,121,167,1)" stroke="rgba(0,0,0,1)" stroke-width="0" class="key"/>
          </g>
        </g>
        <g fill="none" transform="matrix(1 0 0 1 90.5677 127.8345)">
          <g>
            <circle r="8.9712" fill="rgba(242,142,44,1)" stroke="rgba(0,0,0,1)" stroke-width="0" class="key"/>
          </g>
        </g>
        <g fill="none" transform="matrix(1 0 0 1 435.32 213.3744)">
          <g>
            <circle r="19.7454" fill="rgba(225,87,89,1)" stroke="rgba(0,0,0,1)" stroke-width="0" class="key"/>
          </g>
        </g>
        <g fill="none" transform="matrix(1 0 0 1 175.5851 391.178)">
          <g>
            <circle r="15.5197" fill="rgba(118,183,178,1)" stroke="rgba(0,0,0,1)" stroke-width="0" class="key"/>
          </g>
        </g>
        <g fill="none" transform="matrix(1 0 0 1 197.7854 38.9701)">
          <g>
            <circle r="11.2939" fill="rgba(78,121,167,1)" stroke="rgba(0,0,0,1)" stroke-width="0" class="key"/>
          </g>
        </g>
        <g fill="none" transform="matrix(1 0 0 1 385.2028 401.1951)">
          <g>
            <circle r="7.0681" fill="rgba(242,142,44,1)" stroke="rgba(0,0,0,1)" stroke-width="0" class="key"/>
          </g>
        </g>
        <g fill="none" transform="matrix(1 0 0 1 70.7029 222.7796)">
          <g>
            <circle r="17.8423" fill="rgba(225,87,89,1)" stroke="rgba(0,0,0,1)" stroke-width="0" class="key"/>
          </g>
        </g>
        <g fill="none" transform="matrix(1 0 0 1 336.6797 129.482)">
          <g>
            <circle r="13.6166" fill="rgba(118,183,178,1)" stroke="rgba(0,0,0,1)" stroke-width="0" class="key"/>
          </g>
        </g>
        <g fill="none" transform="matrix(1 0 0 1 251.6574 420.4767)">
          <g>
            <circle r="9.3908" fill="rgba(78,121,167,1)" stroke="rgba(0,0,0,1)" stroke-width="0" class="key"/>
          </g>
        </g>
        <g fill="none" transform="matrix(1 0 0 1 201.171 85.511)">
          <g>
            <circle r="5.165" fill="rgba(242,142,44,1)" stroke="rgba(0,0,0,1)" stroke-width="0" class="key"/>
          </g>
        </g>
        <g fill="none" transform="matrix(1 0 0 1 427.809 248.2267)">
          <g>
            <circle r="15.9392" fill="rgba(225,87,89,1)" stroke="rgba(0,0,0,1)" stroke-width="0" class="key"/>
          </g>
        </g>
        <g fill="none" transform="matrix(1 0 0 1 93.1888 363.1283)">
          <g>
            <circle r="11.7135" fill="rgba(118,183,178,1)" stroke="rgba(0,0,0,1)" stroke-width="0" class="key"/>
          </g>
        </g>
        <g fill="none" transform="matrix(1 0 0 1 279.7842 82.9364)">
          <g>
            <circle r="7.4877" fill="rgba(78,121,167,1)" stroke="rgba(0,0,0,1)" stroke-width="0" class="key"/>
          </g>
        </g>
        <g fill="none" transform="matrix(1 0 0 1 353.7455 445.3693)">
          <g>
            <circle r="18.2619" fill="rgba(242,142,44,1)" stroke="rgba(0,0,0,1)" stroke-width="0" class="key"/>
          </g>
        </g>
        <g fill="none" transform="matrix(1 0 0 1 94.237 201.4172)">
          <g>
            <circle r="14.0362" fill="rgba(225,87,89,1)" stroke="rgba(0,0,0,1)" stroke-width="0" class="key"/>
          </g>
        </g>
        <g fill="none" transform="matrix(1 0 0 1 443.9066 151.7209)">
          <g>
            <circle r="9.8104" fill="rgba(118,183,178,1)" stroke="rgba(0,0,0,1)" stroke-width="0" class="key"/>
          </g>
        </g>
        <g fill="none" transform="matrix(1 0 0 1 163.9998 408.4965)">
          <g>
            <circle r="5.5846" fill="rgba(78,121,167,1)" stroke="rgba(0,0,0,1)" stroke-width="0" class="key"/>
          </g>
        </g>
        <g fill="none" transform="matrix(1 0 0 1 192.1501 65.8819)">
          <g>
            <circle r="16.3588" fill="rgba(242,142,44,1)" stroke="rgba(0,0,0,1)" stroke-width="0" class="key"/>
          </g>
        </g>
        <g fill="none" transform="matrix(1 0 0 1 435.0163 313.4171)">
          <g>
            <circle r="12.1331" fill="rgba(225,87,89,1)" stroke="rgba(0,0,0,1)" stroke-width="0" class="key"/>
          </g>
        </g>
        <g fill="none" transform="matrix(1 0 0 1 81.3763 260.7153)">
          <g>
            <circle r="7.9073" fill="rgba(118,183,178,1)" stroke="rgba(0,0,0,1)" stroke-width="0" class="key"/>
          </g>
        </g>
        <g fill="none" transform="matrix(1 0 0 1 348.8202 87.748)">
          <g>
            <circle r="18.6815" fill="rgba(78,121,167,1)" stroke="rgba(0,0,0,1)" stroke-width="0" class="key"/>
          </g>
        </g>
        <g fill="none" transform="matrix(1 0 0 1 335.3831 418.3221)">
          <g>
            <circle r="14.4557" fill="rgba(242,142,44,1)" stroke="rgba(0,0,0,1)" stroke-width="0" class="key"/>
          </g>
        </g>
        <g fill="none" transform="matrix(1 0 0 1 77.8774 91.202)">
          <g>
            <circle r="10.23" fill="rgba(225,87,89,1)" stroke="rgba(0,0,0,1)" stroke-width="0" class="key"/>
          </g>
        </g>
        <g fill="none" transform="matrix(1 0 0 1 415.7202 229.9951)">
          <g>
            <circle r="6.0042" fill="rgba(118,183,178,1)" stroke="rgba(0,0,0,1)" stroke-width="0" class="key"/>
          </g>
        </g>
        <g fill="none" transform="matrix(1 0 0 1 148.036 424.0848)">
          <g>
            <circle r="16.7784" fill="rgba(78,121,167,1)" stroke="rgba(0,0,0,1)" stroke-width="0" class="key"/>
          </g>
        </g>
        <g fill="none" transform="matrix(1 0 0 1 293.9284 46.0455)">
          <g>
            <circle r="12.5527" fill="rgba(242,142,44,1)" stroke="rgba(0,0,0,1)" stroke-width="0" class="key"/>
          </g>
        </g>
        <g fill="none" transform="matrix(1 0 0 1 357.4868 414.3351)">
          <g>
            <circle r="8.3269" fill="rgba(225,87,89,1)" stroke="rgba(0,0,0,1)" stroke-width="0" class="key"/>
          </g>
        </g>
        <g fill="none" transform="matrix(1 0 0 1 41.948 199.828)">
          <g>
            <circle r="19.1011" fill="rgba(118,183,178,1)" stroke="rgba(0,0,0,1)" stroke-width="0" class="key"/>
          </g>
        </g>
        <g fill="none" transform="matrix(1 0 0 1 362.7173 118.2432)">
          <g>
            <circle r="14.8753" fill="rgba(78,121,167,1)" stroke="rgba(0,0,0,1)" stroke-width="0" class="key"/>
          </g>
        </g>
        <g fill="none" transform="matrix(1 0 0 1 237.6425 478.6237)">
          <g>
            <circle r="10.6496" fill="rgba(242,142,44,1)" stroke="rgba(0,0,0,1)" stroke-width="0" class="key"/>
          </g>
        </g>
        <g fill="none" transform="matrix(1 0 0 1 209.9307 51.8067)">
          <g>
            <circle r="6.4238" fill="rgba(225,87,89,1)" stroke="rgba(0,0,0,1)" stroke-width="0" class="key"/>
          </g>
        </g>
        <g fill="none" transform="matrix(1 0 0 1 459.5187 257.8218)">
          <g>
            <circle r="17.198" fill="rgba(118,183,178,1)" stroke="rgba(0,0,0,1)" stroke-width="0" class="key"/>
          </g>
        </g>
        <g fill="none" transform="matrix(1 0 0 1 126.5269 324.552)">
          <g>
            <circle r="12.9722" fill="rgba(78,121,167,1)" stroke="rgba(0,0,0,1)" stroke-width="0" class="key"/>
          </g>
        </g>
        <g fill="none" transform="matrix(1 0 0 1 333.276 29.446)">
          <g>
            <circle r="8.7465" fill="rgba(242,142,44,1)" stroke="rgba(0,0,0,1)" stroke-width="0" class="key"/>
          </g>
        </g>
        <g fill="none" transform="matrix(1 0 0 1 295.6383 480.1194)">
          <g>
            <circle r="19.5207" fill="rgba(225,87,89,1)" stroke="rgba(0,0,0,1)" stroke-width="0" class="key"/>
          </g>
        </g>
        <g fill="none" transform="matrix(1 0 0 1 71.739 182.8273)">
          <g>
            <circle r="15.2949" fill="rgba(118,183,178,1)" stroke="rgba(0,0,0,1)" stroke-width="0" class="key"/>
          </g>
        </g>
        <g fill="none" transform="matrix(1 0 0 1 457.7026 167.0685)">
          <g>
            <circle r="11.0692" fill="rgba(78,121,167,1)" stroke="rgba(0,0,0,1)" stroke-width="0" class="key"/>
          </g>
        </g>
        <g fill="none" transform="matrix(1 0 0 1 170.9823 418.9244)">
          <g>
            <circle r="6.8434" fill="rgba(242,142,44,1)" stroke="rgba(0,0,0,1)" stroke-width="0" class="key"/>
          </g>
        </g>
        <g fill="none" transform="matrix(1 0 0 1 169.1435 41.179)">
          <g>
            <circle r="17.6176" fill="rgba(225,87,89,1)" stroke="rgba(0,0,0,1)" stroke-width="0" class="key"/>
          </g>
        </g>
        <g fill="none" transform="matrix(1 0 0 1 458.0956 324.9451)">
          <g>
            <circle r="13.3918" fill="rgba(118,183,178,1)" stroke="rgba(0,0,0,1)" stroke-width="0" class="key"/>
          </g>
        </g>
        <g fill="none" transform="matrix(1 0 0 1 58.9574 246.8602)">
          <g>
            <circle r="9.1661" fill="rgba(78,121,167,1)" stroke="rgba(0,0,0,1)" stroke-width="0" class="key"/>
          </g>
        </g>
        <g fill="none" transform="matrix(1 0 0 1 408.2684 93.978)">
          <g>
            <circle r="19.9403" fill="rgba(242,142,44,1)" stroke="rgba(0,0,0,1)" stroke-width="0" class="key"/>
          </g>
        </g>
        <g fill="none" transform="matrix(1 0 0 1 295.5379 444.8783)">
          <g>
            <circle r="15.7145" fill="rgba(225,87,89,1)" stroke="rgba(0,0,0,1)" stroke-width="0" class="key"/>
          </g>
        </g>
        <g fill="none" transform="matrix(1 0 0 1 104.9737 73.3839)">
          <g>
            <circle r="11.4887" fill="rgba(118,183,178,1)" stroke="rgba(0,0,0,1)" stroke-width="0" class="key"/>
          </g>
        </g>
        <g fill="none" transform="matrix(1 0 0 1 447.6924 236.5982)">
          <g>
            <circle r="7.263" fill="rgba(78,121,167,1)" stroke="rgba(0,0,0,1)" stroke-width="0" class="key"/>
          </g>
        </g>
        <g fill="none" transform="matrix(1 0 0 1 106.58 389.594)">
          <g>
            <circle r="18.0372" fill="rgba(242,142,44,1)" stroke="rgba(0,0,0,1)" stroke-width="0" class="key"/>
          </g>
        </g>
        <g fill="none" transform="matrix(1 0 0 1 254.846 35.8884)">
          <g>
            <circle r="13.8114" fill="rgba(225,87,89,1)" stroke="rgba(0,0,0,1)" stroke-width="0" class="key"/>
          </g>
        </g>
        <g fill="none" transform="matrix(1 0 0 1 381.2753 448.8297)">
          <g>
            <circle r="9.5857" fill="rgba(118,183,178,1)" stroke="rgba(0,0,0,1)" stroke-width="0" class="key"/>
          </g>
        </g>
        <g fill="none" transform="matrix(1 0 0 1 93.6612 220.722)">
          <g>
            <circle r="5.3599" fill="rgba(78,121,167,1)" stroke="rgba(0,0,0,1)" stroke-width="0" class="key"/>
          </g>
        </g>
        <g fill="none" transform="matrix(1 0 0 1 419.6894 142.717)">
          <g>
            <circle r="16.1341" fill="rgba(242,142,44,1)" stroke="rgba(0,0,0,1)" stroke-width="0" class="key"/>
          </g>
        </g>
        <g fill="none" transform="matrix(1 0 0 1 148.116 452.6886)">
          <g>
            <circle r="11.9083" fill="rgba(225,87,89,1)" stroke="rgba(0,0,0,1)" stroke-width="0" class="key"/>
          </g>
        </g>
        <g fill="none" transform="matrix(1 0 0 1 212.1953 78.9841)">
          <g>
            <circle r="7.6826" fill="rgba(118,183,178,1)" stroke="rgba(0,0,0,1)" stroke-width="0" class="key"/>
          </g>
        </g>
        <g fill="none" transform="matrix(1 0 0 1 457.7945 293.2024)">
          <g>
            <circle r="18.4568" fill="rgba(78,121,167,1)" stroke="rgba(0,0,0,1)" stroke-width="0" class="key"/>
          </g>
        </g>
        <g fill="none" transform="matrix(1 0 0 1 89.9862 323.409)">
          <g>
            <circle r="14.231" fill="rgba(242,142,44,1)" stroke="rgba(0,0,0,1)" stroke-width="0" class="key"/>
          </g>
        </g>
        <g fill="none" transform="matrix(1 0 0 1 387.2812 115.2592)">
          <g>
            <circle r="10.0053" fill="rgba(225,87,89,1)" stroke="rgba(0,0,0,1)" stroke-width="0" class="key"/>
          </g>
        </g>
        <g fill="none" transform="matrix(1 0 0 1 390.4095 360.4715)">
          <g>
            <circle r="5.7795" fill="rgba(118,183,178,1)" stroke="rgba(0,0,0,1)" stroke-width="0" class="key"/>
          </g>
        </g>
        <g fill="none" transform="matrix(1 0 0 1 45.806 164.4842)">
          <g>
            <circle r="16.5537" fill="rgba(78,121,167,1)" stroke="rgba(0,0,0,1)" stroke-width="0" class="key"/>
          </g>
        </g>
        <g fill="none" transform="matrix(1 0 0 1 485.2993 243.6827)">
          <g>
            <circle r="12.3279" fill="rgba(242,142,44,1)" stroke="rgba(0,0,0,1)" stroke-width="0" class="key"/>
          </g>
        </g>
        <g fill="none" transform="matrix(1 0 0 1 85.9171 405.497)">
          <g>
            <circle r="8.1022" fill="rgba(225,87,89,1)" stroke="rgba(0,0,0,1)" stroke-width="0" class="key"/>
          </g>
        </g>
        <g fill="none" transform="matrix(1 0 0 1 224.1763 24.8381)">
          <g>
            <circle r="18.8764" fill="rgba(118,183,178,1)" stroke="rgba(0,0,0,1)" stroke-width="0" class="key"/>
          </g>
        </g>
        <g fill="none" transform="matrix(1 0 0 1 378.063 376.4953)">
          <g>
            <circle r="14.6506" fill="rgba(78,121,167,1)" stroke="rgba(0,0,0,1)" stroke-width="0" class="key"/>
          </g>
        </g>
        <g fill="none" transform="matrix(1 0 0 1 23.7638 223.0093)">
          <g>
            <circle r="10.4248" fill="rgba(242,142,44,1)" stroke="rgba(0,0,0,1)" stroke-width="0" class="key"/>
          </g>
        </g>
        <g fill="none" transform="matrix(1 0 0 1 337.9685 110.0573)">
          <g>
            <circle r="6.1991" fill="rgba(225,87,89,1)" stroke="rgba(0,0,0,1)" stroke-width="0" class="key"/>
          </g>
        </g>
        <g fill="none" transform="matrix(1 0 0 1 262.1015 466.0493)">
          <g>
            <circle r="16.9733" fill="rgba(118,183,178,1)" stroke="rgba(0,0,0,1)" stroke-width="0" class="key"/>
          </g>
        </g>
        <g fill="none" transform="matrix(1 0 0 1 125.2834 60.4596)">
          <g>
            <circle r="12.7475" fill="rgba(78,121,167,1)" stroke="rgba(0,0,0,1)" stroke-width="0" class="key"/>
          </g>
        </g>
        <g fill="none" transform="matrix(1 0 0 1 476.2707 312.7538)">
          <g>
            <circle r="8.5218" fill="rgba(242,142,44,1)" stroke="rgba(0,0,0,1)" stroke-width="0" class="key"/>
          </g>
        </g>
        <g fill="none" transform="matrix(1 0 0 1 65.1216 345.7423)">
          <g>
            <circle r="19.296" fill="rgba(225,87,89,1)" stroke="rgba(0,0,0,1)" stroke-width="0" class="key"/>
          </g>
        </g>
        <g fill="none" transform="matrix(1 0 0 1 280.1732 22.1304)">
          <g>
            <circle r="15.0702" fill="rgba(118,183,178,1)" stroke="rgba(0,0,0,1)" stroke-width="0" class="key"/>
          </g>
        </g>
        <g fill="none" transform="matrix(1 0 0 1 332.5196 465.074)">
          <g>
            <circle r="10.8444" fill="rgba(78,121,167,1)" stroke="rgba(0,0,0,1)" stroke-width="0" class="key"/>
          </g>
        </g>
        <g fill="none" transform="matrix(1 0 0 1 53.8793 142.82)">
          <g>
            <circle r="6.6187" fill="rgba(242,142,44,1)" stroke="rgba(0,0,0,1)" stroke-width="0" class="key"/>
          </g>
        </g>
        <g fill="none" transform="matrix(1 0 0 1 447.9994 124.9563)">
          <g>
            <circle r="17.3929" fill="rgba(225,87,89,1)" stroke="rgba(0,0,0,1)" stroke-width="0" class="key"/>
          </g>
        </g>
        <g fill="none" transform="matrix(1 0 0 1 122.4947 439.4413)">
          <g>
            <circle r="13.1671" fill="rgba(118,183,178,1)" stroke="rgba(0,0,0,1)" stroke-width="0" class="key"/>
          </g>
        </g>
        <g fill="none" transform="matrix(1 0 0 1 144.8999 51.3638)">
          <g>
            <circle r="8.9413" fill="rgba(78,121,167,1)" stroke="rgba(0,0,0,1)" stroke-width="0" class="key"/>
          </g>
        </g>
        <g fill="none" transform="matrix(1 0 0 1 412.4536 409.4684)">
          <g>
            <circle r="19.7156" fill="rgba(242,142,44,1)" stroke="rgba(0,0,0,1)" stroke-width="0" class="key"/>
          </g>
        </g>
        <g fill="none" transform="matrix(1 0 0 1 39.1569 319.3188)">
          <g>
            <circle r="15.4898" fill="rgba(225,87,89,1)" stroke="rgba(0,0,0,1)" stroke-width="0" class="key"/>
          </g>
        </g>
        <g fill="none" transform="matrix(1 0 0 1 377.2307 96.6393)">
          <g>
            <circle r="11.264" fill="rgba(118,183,178,1)" stroke="rgba(0,0,0,1)" stroke-width="0" class="key"/>
          </g>
        </g>
        <g fill="none" transform="matrix(1 0 0 1 272.8998 444.6834)">
          <g>
            <circle r="7.0383" fill="rgba(78,121,167,1)" stroke="rgba(0,0,0,1)" stroke-width="0" class="key"/>
          </g>
        </g>
        <g fill="none" transform="matrix(1 0 0 1 66.3159 116.6579)">
          <g>
            <circle r="17.8125" fill="rgba(242,142,44,1)" stroke="rgba(0,0,0,1)" stroke-width="0" class="key"/>
          </g>
        </g>
        <g fill="none" transform="matrix(1 0 0 1 465.913 226.6171)">
          <g>
            <circle r="13.5867" fill="rgba(225,87,89,1)" stroke="rgba(0,0,0,1)" stroke-width="0" class="key"/>
          </g>
        </g>
        <g fill="none" transform="matrix(1 0 0 1 46.6548 367.5432)">
          <g>
            <circle r="9.3609" fill="rgba(118,183,178,1)" stroke="rgba(0,0,0,1)" stroke-width="0" class="key"/>
          </g>
        </g>
        <g fill="none" transform="matrix(1 0 0 1 276.7915 41.9893)">
          <g>
            <circle r="5.1352" fill="rgba(78,121,167,1)" stroke="rgba(0,0,0,1)" stroke-width="0" class="key"/>
          </g>
        </g>
        <g fill="none" transform="matrix(1 0 0 1 379.812 423.4706)">
          <g>
            <circle r="15.9094" fill="rgba(242,142,44,1)" stroke="rgba(0,0,0,1)" stroke-width="0" class="key"/>
          </g>
        </g>
        <g fill="none" transform="matrix(1 0 0 1 43.235 233.3049)">
          <g>
            <circle r="11.6836" fill="rgba(225,87,89,1)" stroke="rgba(0,0,0,1)" stroke-width="0" class="key"/>
          </g>
        </g>
        <g fill="none" transform="matrix(1 0 0 1 418.8893 119.1963)">
          <g>
            <circle r="7.4578" fill="rgba(118,183,178,1)" stroke="rgba(0,0,0,1)" stroke-width="0" class="key"/>
          </g>
        </g>
        <g fill="none" transform="matrix(1 0 0 1 201.9892 472.7417)">
          <g>
            <circle r="18.2321" fill="rgba(78,121,167,1)" stroke="rgba(0,0,0,1)" stroke-width="0" class="key"/>
          </g>
        </g>
        <g fill="none" transform="matrix(1 0 0 1 184.7434 95.2249)">
          <g>
            <circle r="14.0063" fill="rgba(242,142,44,1)" stroke="rgba(0,0,0,1)" stroke-width="0" class="key"/>
          </g>
        </g>
        <g fill="none" transform="matrix(1 0 0 1 460.9673 347.7968)">
          <g>
            <circle r="9.7805" fill="rgba(225,87,89,1)" stroke="rgba(0,0,0,1)" stroke-width="0" class="key"/>
          </g>
        </g>
        <g fill="none" transform="matrix(1 0 0 1 33.1277 282.88)">
          <g>
            <circle r="5.5548" fill="rgba(118,183,178,1)" stroke="rgba(0,0,0,1)" stroke-width="0" class="key"/>
          </g>
        </g>
        <g fill="none" transform="matrix(1 0 0 1 378.3677 69.1525)">
          <g>
            <circle r="16.329" fill="rgba(78,121,167,1)" stroke="rgba(0,0,0,1)" stroke-width="0" class="key"/>
          </g>
        </g>
        <g fill="none" transform="matrix(1 0 0 1 323.1026 441.5875)">
          <g>
            <circle r="12.1032" fill="rgba(242,142,44,1)" stroke="rgba(0,0,0,1)" stroke-width="0" class="key"/>
          </g>
        </g>
        <g fill="none" transform="matrix(1 0 0 1 15.924 206.5926)">
          <g>
            <circle r="7.8774" fill="rgba(225,87,89,1)" stroke="rgba(0,0,0,1)" stroke-width="0" class="key"/>
          </g>
        </g>
        <g fill="none" transform="matrix(1 0 0 1 468.6572 194.5928)">
          <g>
            <circle r="18.6517" fill="rgba(118,183,178,1)" stroke="rgba(0,0,0,1)" stroke-width="0" class="key"/>
          </g>
        </g>
        <g fill="none" transform="matrix(1 0 0 1 101.5507 421.6042)">
          <g>
            <circle r="14.4259" fill="rgba(78,121,167,1)" stroke="rgba(0,0,0,1)" stroke-width="0" class="key"/>
          </g>
        </g>
        <g fill="none" transform="matrix(1 0 0 1 250.3394 12.3533)">
          <g>
            <circle r="10.2001" fill="rgba(242,142,44,1)" stroke="rgba(0,0,0,1)" stroke-width="0" class="key"/>
          </g>
        </g>
        <g fill="none" transform="matrix(1 0 0 1 360.804 387.6743)">
          <g>
            <circle r="5.9743" fill="rgba(225,87,89,1)" stroke="rgba(0,0,0,1)" stroke-width="0" class="key"/>
          </g>
        </g>
        <g fill="none" transform="matrix(1 0 0 1 37.3281 261.044)">
          <g>
            <circle r="16.7486" fill="rgba(118,183,178,1)" stroke="rgba(0,0,0,1)" stroke-width="0" class="key"/>
          </g>
        </g>
        <g fill="none" transform="matrix(1 0 0 1 440.4962 96.0895)">
          <g>
            <circle r="12.5228" fill="rgba(78,121,167,1)" stroke="rgba(0,0,0,1)" stroke-width="0" class="key"/>
          </g>
        </g>
        <g fill="none" transform="matrix(1 0 0 1 314.1237 459.8373)">
          <g>
            <circle r="8.297" fill="rgba(242,142,44,1)" stroke="rgba(0,0,0,1)" stroke-width="0" class="key"/>
          </g>
        </g>
        <g fill="none" transform="matrix(1 0 0 1 157.8877 76.0847)">
          <g>
            <circle r="19.0713" fill="rgba(225,87,89,1)" stroke="rgba(0,0,0,1)" stroke-width="0" class="key"/>
          </g>
        </g>
        <g fill="none" transform="matrix(1 0 0 1 485.9794 275.6498)">
          <g>
            <circle r="14.8455" fill="rgba(118,183,178,1)" stroke="rgba(0,0,0,1)" stroke-width="0" class="key"/>
          </g>
        </g>
      </g>
    </g>
  </g>
</svg>
